<?xml version="1.0" encoding="UTF-8"?><svg id="Layer_2" xmlns="http://www.w3.org/2000/svg" xmlns:xlink="http://www.w3.org/1999/xlink" viewBox="0 0 493.84 481.61"><defs><style>.cls-1{fill:#f5931e;}.cls-2{fill:#f6f7f7;}.cls-3{fill:#f7ee24;}.cls-4{fill:#ec1c24;}.cls-5{fill:#e6d086;}.cls-6{fill:#8ac53f;}.cls-7{fill:#83bb56;}.cls-8{fill:#9cca53;}.cls-9{fill:#90c554;}.cls-10{fill:#b79a6e;}.cls-11{fill:#cdb279;}.cls-12{fill:#a68865;}.cls-13{fill:#d8bd81;}.cls-14{fill:#c3a778;}.cls-15{fill:#af926b;}.cls-16{fill:#242020;}.cls-17{fill:#36b0e4;}.cls-18{fill:#272323;}.cls-19{fill:url(#radial-gradient);}</style><radialGradient id="radial-gradient" cx="221.3" cy="312.8" fx="221.3" fy="312.8" r="181.58" gradientUnits="userSpaceOnUse"><stop offset=".12" stop-color="#d4df3f"/><stop offset="1" stop-color="#83bb58"/></radialGradient></defs><g id="Layer_1-2"><g><path class="cls-19" d="M407.96,213.73c-1.65-4.13-5.38-6.39-9.16-5.77-.24-.67-.62-1.51-.73-1.79-.92-2.51-1.82-5-3.3-7.24-2.94-4.49-7.7-7.25-13.13-6.32-4.51,.77-8.17,3.98-9.57,8.36-.42,1.31-.46,2.92-.46,4.58-5.02-.45-10.15,1.16-13.86,5-1.92-3.1-4.92-5.44-8.79-6.02-3.46-.52-7.41,.3-9.19,3.74-.5,.97-1,1.94-1.5,2.91-.42,0-.85,0-1.29,.02-2.9,.18-5.85,1.21-8.35,2.68-1.47,.86-2.71,2.02-4.02,3.1-.45,.42-.9,.85-1.34,1.27-.15,.05-.27,.11-.39,.16-.09-.12-.17-.26-.26-.38-.92-1.2-1.8-2.33-3.04-3.23-1.29-.94-2.75-1.57-4.25-1.82,7.37-8.74-2.33-12.43-8.34-11.58-.06-.12-.12-.25-.19-.41-.56-1.3-1.76-2.72-2.65-3.83-1.8-2.23-4.03-4.12-6.65-5.33-5.42-2.51-11.67-2.66-15.02,2.53-.43,.67-.75,1.09-1.01,1.77-7.21-6.61-19.73-5.33-26.32,2.41-.05,.06-.09,.12-.14,.17-1.07-2.64-2.33-5.07-4.97-6.93-2.24-1.57-8.12-2.89-11.48-1.23-.12-.27-.22-.51-.27-.66-.82-2.31-1.81-4.46-3.44-6.3-6.73-7.6-15.09-4.94-21.15,.74-7.58-3.53-16.36-3.31-24.2,.95-4.62,2.51-4.85,7.29-2.78,10.81-4.58,.88-8.87,3.63-11.48,7.67-1.99,3.08-2.81,6.12-3.05,9.16-.91-1.08-1.81-2.1-2.68-2.79-3.32-2.61-6.93-4.41-11.14-4.94-3.32-.41-6.7,.02-9.71,1.25-3.44-4.04-7.43-7.53-11.99-10.57-3.76-2.5-8.88-.62-11.13,2.92-2.76,4.33-3.55,9.26-2.79,14.04-3.7,.2-7.44,1.54-10.89,3.54-3.23-6.37-8.15-11.85-15.21-11.88-7.77-.03-11.71,6.06-13.65,12.96-.92-.74-1.8-1.4-2.61-1.77-4.68-2.19-9.84-2.23-14.51,0-5.36,2.56-8.5,6.72-10.33,11.59-3.78-3.4-7.8-6.17-14.13-5.87-4.49,.21-8.25,1.95-11.14,4.63-3.66-4.02-7.49-7.87-11.54-11.55-5.67-5.14-13.37-.36-14.03,5.34-.83,1.17-1.36,2.57-1.43,4.17-.75,17.63-1.06,35.28-.85,52.92,.08,6.37-1.43,20.81,2.14,29.32-2.84,7.93-1.64,17.5-1.54,25.6,.17,13.05,.33,26.1,.5,39.15,.17,13.05,.33,26.1,.5,39.15,.13,10.11-1.1,22.13,6.79,29.88,7.04,6.91,17.67,6.69,26.81,6.67,13.21-.04,26.42-.08,39.63-.12,26.42-.08,52.84-.16,79.25-.23,14.58-.04,29.15-.09,43.73-.13,7.74-.02,15.49-.05,23.23-.07,5.43-.02,10.85,.69,15.46-1.77,55.05-1.23,108.71-25.67,145.52-66.59,.71-.23,1.43-.58,2.14-1.08,8.37-5.85,14.57-13.75,17.57-23.37,2.75-2.43,5.05-5.94,6.79-8.52,5.4-8.05,10.13-16.55,14.11-25.4,7.98-17.74,12.97-36.19,15.32-55.49,.72-5.93-7.53-10.43-12.24-7.03-12.81,9.26-7.67-6.32-15.35,6.6m-176.45-38.69c.1,0,.2,0,.3-.02,.04,.09,.09,.19,.13,.28-.14-.09-.28-.18-.43-.26Zm70.82-23.09c.5,.29,.45,.79,0,0h0Zm-.94-.15c-.13,.03-.26,.05-.4,.09,.14-.04,.27-.07,.4-.09Z"/><path class="cls-18" d="M427.37,153.38c6.78-8.44,13.57-16.88,20.56-25.59,15.36,20.77,30.56,41.32,45.91,62.07-14.93,13.72-29.81,27.4-44.66,41.06,.09,.2,.12,.27,.16,.34,.04,.07,.09,.18,.13,.18,6.57,0,13.14,0,20.16,0-.54,.79-.78,1.26-1.12,1.63-6.86,7.44-13.7,14.9-20.63,22.28-1.42,1.51-2.22,3.09-2.52,5.14-3.24,22.38-9.68,43.81-19.35,64.26-10,21.15-23,40.27-39.23,57.15-29.99,31.19-66.28,51.26-108.4,60.85-4.57,1.04-8.31,2.86-11.83,5.95-12,10.54-24.22,20.83-36.36,31.21-.62,.53-1.26,1.04-2.07,1.69-1.12-1-2.2-1.96-3.47-3.08,7.33-10.11,14.59-20.13,22.06-30.44-.63-.09-.92-.19-1.19-.16-13.48,1.23-26.98,.97-40.48,.84-.91,0-1.81-.01-2.72-.01-59.15,0-118.3,0-177.44,0-7.51,0-13.85-2.65-18.72-8.42-4.09-4.86-5.76-10.64-5.96-16.9-.02-.58,0-1.15,0-1.73,0-43.78,.01-87.57,0-131.35,0-19.59,.03-39.17-.18-58.76-.14-12.85,.28-25.66,1.89-38.41,5.98-47.33,24.1-89.16,56.89-124.2,26.83-28.67,59.43-48.08,97.01-59.28,16.63-4.96,33.62-7.89,50.93-9.11,11.6-.82,23.17-.8,34.77,.11,23.67,1.86,46.42,7.38,68.3,16.55,24,10.06,45.56,23.94,64.77,41.48,9.32,8.51,17.88,17.73,25.66,27.67,.77,.99,1,1.79,.8,3.24-.25,1.75,.61,3.85,1.51,5.53,1.81,3.41,3.89,6.68,6,9.92,1.11,1.7,1.78,3.46,2.11,5.45,.55,3.33,1.3,6.62,1.82,9.95,.24,1.53,.84,2.79,1.77,3.99,2.82,3.65,5.54,7.37,8.42,10.97,1.07,1.34,1.7,2.71,1.95,4.41,.65,4.46,1.46,8.9,2.21,13.34,.19,.06,.37,.12,.56,.18Zm-29.48,183.22h-.01c-.18,.17-.36,.32-.54,.48-.8,.68-1.6,1.36-2.4,2.04-4.65,3.88-9.32,7.73-13.93,11.64-4.5,3.83-8.93,7.74-13.42,11.59-9.79,8.4-19.59,16.8-29.4,25.17-5.12,4.37-10.3,8.66-15.4,13.04-3.85,3.31-7.63,6.72-11.44,10.08-.39,.29-.8,.57-1.17,.88-7.64,6.51-15.28,13.03-22.91,19.55-2.3,1.96-4.57,3.96-7.1,6.15,.66,0,.98,.06,1.26,0,21.04-5.27,40.93-13.34,59.5-24.59,21.71-13.15,40.36-29.75,56-49.71,11.64-14.85,21.05-31.01,28.42-48.37,4.74-11.15,8.54-22.61,11.36-34.38,1.19-4.94,1.95-9.99,2.91-14.98,.01-.19,.02-.38,.04-.56-.11,.09-.22,.19-.32,.28-.19,.14-.42,.26-.58,.44-5.13,5.51-10.26,11.01-15.37,16.54-1.77,1.92-3.48,3.89-5.21,5.84-2.8,2.98-5.62,5.96-8.41,8.96-9.39,10.1-18.77,20.21-28.14,30.33-1.92,2.08-3.81,4.2-5.97,6.59h24.72c-.07,.33-.02,.75-.22,.97-.53,.59-1.17,1.08-1.76,1.61-.16,.14-.33,.29-.49,.43Zm-167.78-112.86l-.33-.11c-1.22-.61-2.68-.63-4-.29-2.74,.7-5.5,1.35-8.25,2.02,.04-.11,.05-.22,.01-.34,.13-.34,.26-.67,.39-1.01,.11-.13,.17-.27,.18-.45,.12-.34,.24-.69,.36-1.03,.19-.49,.37-.97,.56-1.46,.12-.34,.24-.68,.37-1.01,.21-1.27,.12-2.7,.69-3.78,1.04-1.98,.56-3.8,.07-5.7-.76-4.73-4.86-7.06-8.57-7.69-3.88-.66-7.4,1.06-9.58,4.63-.63,1.04-1.27,2.07-2.12,3.46-.81-2.07-1.49-3.73-2.11-5.4-2.37-6.35-12.67-9.7-18.57-3.46-2.7,2.85-4.15,6.27-4.77,10.09-.28,1.75-.5,3.51-.84,5.88-1.38-1.91-2.43-3.32-3.44-4.77-1.51-2.18-3.17-4.2-5.4-5.7-2.54-1.71-5.28-2.25-8.19-1.14-1.3,.5-2.55,1.13-3.78,1.79-1.5,.81-2.96,1.71-4.57,2.64-1.23-2.26-2.31-4.37-3.51-6.4-1.64-2.79-3.66-5.29-6.46-7.01-2.42-1.48-4.93-1.71-7.49-.29-4.03,2.24-6.44,7.62-5.42,12.33,.81,.21,1.7,.36,2.54,.67,2.07,.77,4.23,1.41,6.16,2.45,3.7,1.99,5.49,5.3,5.74,9.46,.04,.63,.08,1.26,.1,1.48,3.43,1.04,6.56,1.99,9.69,2.94,2.84,2.08,5.19,4.53,6.24,8,.35,1.17,.62,2.33,.3,3.68h-4.23c-.24-.86-.37-1.68-.7-2.42-.61-1.39-1-2.99-2.7-3.55l-.03-.03c-.38-1.28-1.56-1.49-2.57-1.94-.33-.12-.67-.24-1-.36-.34-.13-.67-.25-1.01-.38-.69-.14-1.38-.27-2.07-.41-1.75,.02-3.51,.04-5.26,.06l-1.59,.28c-.49-.02-.98-.04-1.47-.06,.45-1.96,.91-3.93,1.36-5.89v-1.49c-.11-.66-.24-1.32-.37-1.98-1.03-3.05-3.72-3.99-6.39-4.82-1.87-.58-3.84-.83-5.75-1.28-3.79-.9-5.41-.32-7.49,2.95-1.32,2.08-2.51,4.24-3.79,6.35-.27,.44-.66,.8-1.19,1.44-.42-2.12-.76-3.89-1.13-5.65-.65-3.07-1.48-6.07-3.32-8.69-1.35-1.93-3.01-3.48-5.36-4.12-3.9-1.06-7.12,.35-9.94,2.89-2.4,2.16-3.39,4.77-2.19,7.98,.5,1.34,.81,2.75,1.35,4.64-1.72-.97-2.95-1.63-4.13-2.35-3.12-1.88-6.41-3.4-10.01-4.04-6.2-1.09-10.93,.46-13.89,6.61-1.16,2.41-1.72,5.11-2.41,7.72-.5,1.92-.76,3.91-1.22,6.39-.53-.9-.78-1.29-.99-1.71-.89-1.76-1.69-3.57-2.65-5.29-2.9-5.24-8.16-7.55-13.73-6.2-4,.97-7.19,3.15-9.84,6.2-.63,.73-1.27,1.46-2.06,2.37-1.13-2.3-2.11-4.37-3.15-6.4-1.7-3.31-3.7-6.41-6.55-8.88-3.62-3.14-7.55-2.8-10.47,1.01-2.15,2.8-3.54,5.91-3.38,9.56,.05,1.23-.04,2.46-.06,3.69-1.26,.43-.77,1.51-.77,2.31-.03,17.73-.02,35.46-.02,53.19,0,.49-.08,1.02,.07,1.47,.1,.32,.52,.53,.8,.79,.04,.98,.12,1.97,.12,2.95,0,43.27,0,86.55,.02,129.82,0,1.96,.14,3.95,.42,5.89,1.49,10.23,9.11,17.09,19.62,17.1,61.84,.04,123.67,.16,185.51,.23,6.91,0,13.83-.05,20.73-.29,6-.21,11.98-.74,17.97-1.08,1.01-.06,1.69-.45,2.25-1.25,3.19-4.49,6.39-8.97,9.59-13.46,3.6-4.96,7.21-9.93,10.81-14.89,1.77-2.36,3.58-4.7,5.31-7.1,3.08-4.26,6.11-8.56,9.17-12.85,4.27-5.87,8.54-11.75,12.81-17.62,.64-.93,1.26-1.87,1.93-2.78,2.2-3,4.42-5.99,6.63-8.99,2.76-3.81,5.52-7.62,8.28-11.43,.26-.36,.53-.72,1.06-1.46h-21.71c.08-.42,.05-.61,.13-.72,5.31-6.95,10.59-13.91,15.95-20.82,2.99-3.86,6.13-7.6,9.15-11.44,5.7-7.24,11.37-14.51,17.02-21.79,2.57-3.31,5.06-6.67,7.59-10.01,.54-.61,1.12-1.19,1.61-1.84,2.19-2.83,4.35-5.69,6.53-8.53,3.67-4.38,7.13-8.92,10.93-13.98h-23.63c.8-1.09,1.24-1.73,1.72-2.34,3.62-4.58,7.25-9.15,10.87-13.73,.4-.51,.79-1.03,1.19-1.54,.14-.16,.28-.32,.42-.48,1.89-2.44,3.75-4.9,5.68-7.31,3.88-4.83,7.8-9.62,11.71-14.42,4.34-5.35,8.68-10.69,13.01-16.05,1.95-2.41,3.86-4.85,5.74-7.21-2.55-4.26-5.37-5.31-9.62-3.4-1.61,.72-3.16,1.81-4.4,3.07-2.42,2.47-3.77,5.38-2.29,8.94,.21,.49,.26,1.05,.47,1.95-1.39-.3-2.49-.5-3.56-.78-6.32-1.66-9.33-.29-12.1,4.85-.34,.62-.77,1.43-1.34,1.64-1.91,.7-2.25,2.17-2.36,3.9-.15,2.43,.43,4.72,1.24,6.98,.43,1.2,.85,2.4,1.33,3.75-1.19-.08-2.07-.15-2.95-.21-.96-.1-1.95-.11-2.89-.32-5.48-1.26-8.13,1.4-8.04,5.93,.02,1.22-.04,2.45-.07,3.68-1.55,.18-3.1,.36-4.66,.54-.13-1.05-.23-1.82-.33-2.6,.19-1.46,.32-2.94,.6-4.38,.95-4.98,4.29-7.9,9.34-8.27,.64-.05,1.27-.12,1.87-.17,0-2.51-.19-4.9,.05-7.23,.26-2.56,2.19-4.29,4.16-6.15-1.25-1.21-2.2-2.36-3.36-3.23-2.97-2.2-6.07-1.85-8.64,.8-1.61,1.66-2.37,3.72-2.79,5.94-.12,.63-.22,1.26-.35,1.99-.62-.1-1.1-.14-1.56-.25-4.41-.98-7.91,.4-10.64,3.97-1.15,1.5-2.42,2.91-3.67,4.33-.33,.38-.8,.64-1.4,1.11-.26-1.85-.45-3.39-.71-4.91-.39-2.24-2.67-5.06-4.41-5.17-1.79-.11-3.65-.09-5.4,.25-3.16,.62-4.74,2.57-4.99,5.89-.22,2.81,.1,5.57,1.24,8.2v1.72c-2,.12-3.86,.23-5.72,.34-.52,.13-1.05,.27-1.57,.4-1.99,.5-2.67,2.03-2.9,3.82-.26,1.99-.37,4.01-.56,6.24h-4.3c-.07-2.08-.14-4.15-.21-6.23,.2-.62,.43-1.24,.59-1.87,.95-3.77,3.25-6.14,7.11-6.95,.61-.13,1.18-.42,1.75-.63-.51-2.77-1.61-3.44-3.88-2.29-1.37,.7-2.63,1.65-3.84,2.61-1.65,1.3-3.21,2.71-5.19,4.39,.17-1.2,.25-1.91,.38-2.61,.37-2.01,.89-4,1.1-6.03,.33-3.09,.12-6.09-2.79-8.12-1.25-.52-2.47-1.32-3.77-1.48-1.83-.23-3.73,0-5.59,.04-.39-.69-.78-1.38-1.17-2.07-.64-1.32-.4-2.38,.58-3.54,1.84-2.18,2.84-4.78,3.01-7.65,.12-1.92-.57-3.45-2.54-3.97-1.81-.48-3.7-1.09-5.52-.99-4.62,.24-9.04,1.45-13.22,3.52-1.2,.59-1.92,1.29-2.06,2.74-.1,1.1-.68,2.18-1.19,3.2-.62,1.23-1.38,2.38-2.23,3.81,3.7,.76,7.18,1.67,9.77,4.43,.56,1.07,1.14,2.14,1.67,3.23,1.41,2.88,1.11,6,1.22,9.06-.11,.87-.22,1.75-.32,2.58,7.44,2.08,9.98,4.68,10.78,11.86-1.36,.32-2.74,.64-4.19,.97-.37-1.21-.69-2.14-.93-3.08-.61-2.39-2.16-3.87-4.5-4.39-1.58-.35-3.23-.42-4.85-.61-.54-.11-1.09-.22-1.63-.33-.04-.53-.09-1.06-.13-1.58,.12-.8,.25-1.59,.37-2.39,0-.39,.01-.78,.02-1.17,1.39-4.36,.82-8.33-2.38-11.77-.11-.11-.22-.22-.33-.33-.12-.12-.27-.18-.44-.19-.73-.32-1.44-.76-2.2-.95-3.52-.87-7.11-1-10.72-.96-.04-.3-.09-.6-.13-.9,.21-.12,.48-.19,.61-.36,1.7-2.32,3.39-4.64,5.05-7,3.03-4.31,2.59-5.27-.36-9.43-.05-.07-.11-.12-.16-.18-2.23-2.49-4.87-3.45-8.2-2.5-2.77,.79-5.05,2.34-7.32,3.98-.6,.44-1.09,1.34-2.23,.81-.05-.85-.07-1.75-.17-2.64-.37-3.36-.84-6.71-2.91-9.55-1.39-1.91-3.24-2.84-5.65-3.02-4.32-.32-9.52,3.44-10.38,7.26-.28,1.22-.77,2.4-1.25,3.86-1.56-1.75-2.84-3.25-4.18-4.69-1.58-1.7-3.34-3.16-5.52-4.07-1.68-.71-3.33-.82-5.01-.07-3.49,1.55-6.51,7.2-5.91,10.99,1.61,.91,3.28,1.66,4.74,2.71,1.44,1.03,2.66,2.36,4.02,3.58,.71-.42,1.33-.81,1.98-1.17,7.72-4.21,17.71-.63,21.1,7.47,1.4,3.33,1.18,6.76,1.02,10.21l-.02,.04c-.33,.39-.62,.78,.16,.99l.24,.02,.23-.08c.82,0,1.64,0,2.47,.01,.18,.01,.35,.03,.53,.04,4.45,.54,8.11,2.45,10.79,6.12,2.73,3.74,3.93,7.89,3.4,12.51-1.49-.28-2.98-.56-4.36-.82-.83-2.99-.9-5.96-2.72-8.35-1.07-2.09-2.76-3.41-5.02-4.01m11.75-44.83c-.47-.05-.95-.11-1.42-.16-2.76-1.52-5.53-3.03-8.5-4.67-.85,1.4-1.54,2.55-2.34,3.87,4.06,2.59,5.7,6.49,6.92,10.74,1.12-.54,2-.97,2.88-1.4,.81-.2,1.62-.4,2.43-.6,2.32,.16,4.63,.33,6.95,.49,3.2,1.5,5.57,3.93,7.47,6.96,.54-.24,.98-.43,1.41-.62,.69-.31,1.38-.61,2.07-.92l-.17-.26c-.95,.12-1.9,.23-2.85,.35-.24-1.11-.37-2.26-.73-3.33-1.04-3.05-1.81-6.37-5.68-7.22-1.44-.61-2.88-1.23-4.32-1.84-1.22-.45-2.44-.91-3.66-1.36-.15-.09-.29-.1-.45-.02Zm16.69,4.04l.42,.88c.87,2.6,1.74,5.21,2.6,7.79,3.59-.75,7.15-1.5,10.82-2.27-.3-3.1-.55-6.19-.94-9.26-.08-.66-.58-1.33-1.04-1.86-.72-.83-1.58-1.55-2.38-2.32-1.48-1.02-2.96-2.04-4.43-3.07-1.32-2.14-3.28-3.58-5.4-4.82-.26-.15-.65-.21-.96-.17-2.35,.33-4.69,.7-7.03,1.05-1.16,.31-2.31,.61-3.47,.92-.47-.15-1.14-.16-1.38-.48-.75-1.02-1.33-2.16-1.98-3.25,3.03-1.75,6.46-2,9.79-2.62,.41,0,.86,.12,1.22,0,3.46-1.22,6.25,.13,8.87,2.23,.61,.49,1.24,.94,2.07,1.57-.1-3.19-.17-6.04-.3-8.88-.02-.46-.18-1.01-.47-1.34-1.19-1.31-2.46-2.55-3.75-3.87-3.18,1.82-6.14,3.52-9.3,5.32-.99-.52-2.2-1.16-3.46-1.83,1.97-4.32,6.45-4.9,9.66-7.25-.83-1.67-1.56-3.23-2.36-4.74-.96-1.81-3.03-2.04-4.37-.52-3.12,3.54-5.63,7.46-7.29,11.89-1.96,3.48-3.92,6.95-5.87,10.43-.92,1.21-1.83,2.43-2.84,3.77,3.17,2.01,6.28,3.53,9.75,4.24,3.73,1.38,7.42,2.87,10.88,4.87,.41,.24,.89,.38,1.34,.56,.54,1.01,1.08,2.03,1.62,3.04Zm-160.28,13.06c-.07-.28-.13-.57-.2-.85-.53-.56-1.08-1.1-1.59-1.67-.46-.52-1.27-1.08-1.26-1.62,.02-4.26-1.23-8.68,1.68-12.61,.76-1.02,1.07-2.33,2.39-2.94,.48-.22,.77-.82,1.15-1.25,1.51-1,2.72-2.28,3.76-4.11-4.84-1.71-9.27-4.36-14.61-3.43-1.25,.15-2.68-.02-3.72,.53-1.61,.85-2.97,2.2-4.43,3.34-3.09,1.76-5.89,3.76-7.67,7.03-.75,1.37-2.18,2.41-3.41,3.46-.95,.81-1.39,1.66-1.49,2.92-.32,3.93,1.23,7.39,2.51,10.92,.41,1.13,1.03,2.2,1.66,3.51-1.5,.71-2.79,1.33-4.27,2.03-.67-1.35-1.39-2.46-1.81-3.68-1.42-4.15-3.13-8.13-2.83-12.82,.21-3.34,1.17-5.57,3.94-7.2,.98-.58,1.87-1.32,1.94-2.99-2.13-.74-4.27-1.49-6.41-2.23-5.13-2.18-10.5-2.71-16.01-2.31-.68,.15-1.42,.19-2.04,.48-3.28,1.58-4.62,4.82-6.72,7.6,2.54,2.19,4.88,4.21,7.22,6.23,1.79,1.65,3.57,3.29,5.36,4.94,1.12,2.05,2.34,4.07,3.33,6.18,.43,.9,.4,2.02,.58,3.04-.25,1.35-.49,2.71-.74,4.06-.41,.88-.74,1.8-1.25,2.61-.82,1.31-1.84,2.51-2.63,3.84-1.35,2.26-2.27,4.49-1.42,7.36,.59,2,1.22,3.62,3.11,4.6,.64,.34,1.21,.82,1.81,1.23,1.18-.58,1.45-1.66,1.63-2.8,.19-.14,.45-.24,.55-.42,1.63-3.18,4.14-5.51,7.13-7.38,4.49-1.85,9.08-1.96,13.74-.74,.78,.21,1.56,.42,2.34,.63,.6,.34,1.19,.69,1.97,1.13,.09-.71,.14-1.17,.2-1.63,0,0,0,.02,0,.02,.38-.5,.76-1.01,1.14-1.51,1.14-1.48,2.11-3.13,3.45-4.4,3.09-2.93,6.9-4.25,11.17-4.21,.45,.03,.9,.06,1.38,.09-.16-1.42-.3-2.65-.44-3.88l-.18-1.11Zm323.56-37.31c.59-.41,1.25-.8,.47-1.61-.36-1.24-.79-2.46-1.06-3.72-.58-2.69-1.07-5.41-1.6-8.11-.09-.81-.27-1.62-.27-2.42,0-2.61-1.14-4.65-2.82-6.57-2.18-2.51-4.18-5.17-6.25-7.77-2.11-2.8-3.42-5.91-3.73-9.42-.04-.41-.1-.82-.18-1.22-.43-2.15-.88-4.29-1.33-6.52-2.68,1.88-3.41,2.77-4.44,5.29-2.43,3.79-3.28,8.16-4.51,12.38-.13,.45,0,.97,.01,1.46-.04,1.48-.08,2.95-.12,4.43-.04,.81-.07,1.61-.11,2.42-.13,2.45-.25,4.89-.38,7.34-1.76,.02-3.52,.04-5.28,.07,0-.29-.01-.58-.02-.87,.21-.5,.58-1,.59-1.5,.05-2.85,0-5.71,0-8.57,.02-.95,.04-1.9,.05-2.85,.23-1.26,.33-2.57,.71-3.78,1.29-4.1,2.23-8.34,4.37-12.15,.34-.61,.43-1.35,.64-2.04,.7-1.02,1.4-2.04,2.1-3.06l.04-.02c1.8-.72,2.83-2.28,4.12-3.47-.11-.32-.15-.48-.23-.62-2.9-4.84-6.36-9.39-7.57-15.08-.05-.24-.14-.48-.27-.68-.76-1.15-2.1-1.26-3.07-.25-.97,1-2,1.96-2.87,3.04-1.33,1.65-2.55,3.38-3.82,5.08-1.44,1.56-2.87,3.12-4.11,4.46,.12,1.15,.33,2.03,.29,2.89-.12,2.38-.48,4.75-.48,7.12,0,1.84-.73,3-2.1,4.15-4.21,3.54-8.29,7.22-12.43,10.85l-.35,.4c-.75,.63-1.48,1.28-2.26,1.87-3.11,2.35-4.67,5.84-6.63,9.02-.34,.55-.19,1.4-.26,2.11,.07,.36,.14,.71,.21,1.07,.3,.11,.6,.31,.9,.31,3.36,.04,6.71,.06,10.07,.08,.98,.04,1.96,.07,2.94,.11,1.65,.09,3.31,.18,4.96,.27l4.46,.15c.36,.63,.75,1.25,1.08,1.89,3.58,6.95,7.07,13.94,9.67,21.33,.29,.85,.58,1.7,.87,2.55,1.35,2.46,2.71,4.93,4.06,7.39,1.05,3.49,4.08,5,6.78,7.1,1.38-1.82,2.6-3.44,3.83-5.05,.15-.19,.29-.37,.44-.56,.15-.18,.3-.37,.44-.55,.87-.51,.59-1.23,.34-1.93-.56-1.53-.99-3.14-1.74-4.58-2.16-4.21-3.07-8.55-1.91-13.21,.78-1.7,1.58-3.39,2.33-5.1,1.2-2.74,3.39-4.67,5.31-7.05,1.3,1.11,2.37,2.04,3.52,3.03-1.07,1.36-1.98,2.5-2.88,3.65-1.4,1.32-2.09,3-2.51,4.82-1.5,2.23-1.93,4.8-1.3,7.25,.67,2.62,2.02,5.06,3.2,7.91,2.18-2.74,4.17-5.2,6.11-7.7,.44-.56,.71-1.25,1.06-1.88,.33-.28,.66-.55,.99-.83,.66-.84,1.33-1.68,1.99-2.52l-.05-.05ZM50,202.41l.52-.33c1.29-2.9,.74-5.67-1.03-8.08-1.08-1.48-2.67-2.6-4.04-3.88-.38-.27-.76-.53-1.14-.8-.98-.94-1.95-1.89-2.93-2.83-1.34-1.15-2.98-2.09-3.94-3.49-1.62-2.36-3.56-2.87-6.12-2.07-.39,.12-.81,.11-1.22,.16-3.99,.49-7.98,1-11.98,1.45-.89,.1-1.55,.33-1.93,1.22-.9,2.11-2.08,4.12-2.74,6.29-1.89,6.28-3.59,12.62-5.35,18.94-.14,.52-.21,1.06-.37,1.87,.65-.23,1.02-.33,1.36-.49,3.95-1.83,7.69-1.31,11.19,1.11,1.34,.93,2.52,2.09,3.77,3.15,1.88,2.73,3.77,5.47,5.57,8.08,2.52-1.35,5.01-2.69,7.51-4.03,2.74-.4,5.47-.79,8.3-1.2-.06-.5-.03-1.01-.19-1.45-.68-1.97-.56-3.83,.52-5.65,1.12-1.9,2.18-3.85,3.23-5.79,.38-.7,.69-1.44,1.03-2.17l-.02-.02Zm312.79-33.17c-1.96-1.51-3.92-3.01-5.88-4.52-.81-.76-1.63-1.51-2.53-2.36,.5-.62,.89-1.1,1.28-1.59,.27-.47,.55-.94,.82-1.4,.15-.11,.29-.21,.44-.32,.27-.03,.54-.06,.81-.09,.93,.79,1.85,1.61,2.81,2.38,2.49,2,5,3.97,7.51,5.96,.38,.67,.75,1.35,1.13,2.02,.88,1.61,1.76,3.22,2.63,4.83,.64,1.29,1.28,2.59,1.95,3.95-.74,.5-1.32,.94-1.94,1.32-3.51,2.12-7,4.27-10.54,6.33-1.76,1.02-3.11,2.35-3.9,4.23-2.91,3.37-4.19,7.48-5.3,11.66,.24,.2,.4,.4,.61,.51,.21,.11,.47,.13,.7,.19,1.73,1.4,3.47,2.81,5,4.05,1.75-.97,3.36-1.87,4.98-2.77,.97-.13,1.94-.26,2.92-.39,.99-.11,2.1,.62,2.97-.41,.03-.17,.06-.34,.09-.51,.13-.49,.26-.98,.39-1.46,1.45-2.07,2.64-4.38,4.41-6.13,1.7-1.69,3.98-2.81,6-4.17,2.14-.22,4.27-.43,6.41-.65,3.12,.61,5.53,2.37,7.74,4.93,1.44-1.87,2.77-3.61,4.11-5.36,.52-.62,1.09-1.21,1.56-1.87,.48-.69,0-1.03-.6-1.25-.14-.1-.29-.21-.43-.31-.17-.15-.34-.3-.52-.44l-.05-.04c-2.33-1.75-4.3-3.81-5.68-6.39-.25-.51-.44-1.06-.74-1.53-2.35-3.57-4.07-7.42-5.36-11.49-.64-2.01-1.51-3.95-2.27-5.93-.24-.45-.47-.89-.71-1.34-.32-.67-.63-1.33-.95-2-.81-1.65-1.63-3.3-2.44-4.95-.34-.53-.67-1.06-1.01-1.59-.62-2.65-.65-2.68-3.13-2.75-5.56-.17-11.13-.24-16.68-.56-2.21-.13-3.77,.58-5.03,2.27-1.14,1.05-2.28,2.09-3.42,3.14-3.76,2.83-6.88,6.28-9.49,10.16-.58,.86-.54,2.13-.79,3.21-.08,.81-.16,1.61-.24,2.42-.45,3.62-.91,7.25-1.34,10.72-1.7,.85-3.17,1.58-4.64,2.31,.05,.18,.09,.35,.14,.53,1.6-.05,3.29,.24,4.77-.21,3.29-.99,6.41-2.47,9.15-4.61,.44-.34,.99-.55,1.48-.82,.28,.37,.56,.73,.84,1.1,.32,.48,.65,.97,.97,1.45,.5,.88,.47,1.61-.52,2.16-.47,.26-.88,.65-1.32,.98-3.64,1.7-7.27,3.41-10.91,5.11-1.12-.11-2.24-.23-3.36-.34h-4.32c-1.56,4.36-3.26,8.51-6.31,11.97-1.03,1.17-1.95,2.45-2.8,3.75-.43,.66-.78,1.47-.84,2.23-.16,2.08-.15,4.18-.21,6.53,.84,.7,1.96,1.64,3.09,2.58,1.26,1.46,1.39,1.57,2.44,.64,2.77-2.44,5.95-3.72,9.66-3.63,.46-.96,.84-1.86,1.3-2.72,.47-.86,1.02-1.68,1.53-2.52,1.13-1.03,2.26-2.05,3.38-3.08,.24-.02,.5,0,.73-.06,3.83-1.21,3.81-1.23,5.17-5.2,.69-2,1.19-4.15,2.31-5.89,2.13-3.34,3.95-6.96,7.13-9.53,3.53-1.1,6.3-3.49,9.55-5.25-1.15-2.1-2.09-3.91-3.13-5.66-.36-.59-1-1.01-1.51-1.51Zm-248.56,41.01v.02c1.94-.61,3.86-1.23,5.86-1.87,.13-1.18,.17-2.5,.45-3.77,1.29-6,4.37-10.69,10.47-12.55,2.75-.84,4.35-2.76,5.48-4.89,1.15-2.18,1.81-4.74,1.16-7.39-.25-1.03-.23-2.12-.34-3.18,1.02-2.14,2.03-4.29,3.05-6.43,1.06-.85,2.11-1.69,3.23-2.59,1.09,1.23,2.04,2.31,3.2,3.63-.54,.37-.92,.56-1.22,.84-2.44,2.25-3.64,4.98-3.18,8.35,.12,.89,.49,1.89,.22,2.67-1.04,3.12-.96,6.72-3.83,9.11,1.42,.95,2.89,1.64,3.95,2.72,2,2.04,3.88,4.23,5.61,6.5,1.6,2.09,2.27,2.4,4.73,1.32,.38-.17,.74-.36,1.11-.54,1.81-.35,3.62-.7,5.44-1.05,1.49,.22,2.98,.45,4.47,.67,.83,.39,1.65,.79,2.48,1.18,1.41,1.07,2.82,2.15,4.29,3.27,1.17-2.1,2.24-4.02,3.32-5.94,1.97-2.05,4.09-3.92,6.71-5.12,2.12-.5,4.24-1,6.34-1.5,0-.69,.07-1.19-.01-1.66-1.33-7.94-1.38-7.9-7.04-13.7-1.5-1.54-3.11-2.32-5.2-2.21-1.33-.1-2.67-.2-4-.3-1.48,1.05-2.96,2.09-4.44,3.14-2.38,.18-3.88,1.36-4.48,3.75-.38,1.5-.87,2.98-1.5,4.39-.95,2.15-2.02,4.25-3.11,6.34-.17,.32-.75,.44-1.13,.64-1.06-.73-2.13-1.47-3.06-2.11,1.1-2.53,2.17-4.89,3.15-7.29,.93-2.28,1.83-4.57,2.6-6.9,.41-1.25,1.2-1.82,2.37-2.2,1.42-.46,2.79-1.07,4.51-1.75-.81-.56-1.18-.85-1.59-1.1-4.48-2.73-9.1-5.28-13.42-8.25-3.6-2.47-7.31-3.44-11.54-2.57-.72,.09-1.43,.18-2.15,.27-.76,.03-1.51,.07-2.27,.1-1.16,.15-2.32,.3-3.47,.45-2.01,.31-4.16,.28-6.01,1-2.56,1-4.9,2.58-7.33,3.9-2.89,1.01-5.39,2.73-7.55,4.81-2.11,2.03-3.92,4.36-5.86,6.56-4.06,2.78-4.64,6.72-3.74,11.2,.75,.44,1.51,.9,2.28,1.35,.67,3.29,.73,6.73,2.54,9.73,.58,1.14,1.04,2.37,1.77,3.41,1.11,1.59,2.4,3.04,3.62,4.56,.29,.29,.58,.59,.87,.88q.97,1.33,2.2,.09Zm252.34-89.34c.23-.07,.51-.07,.68-.22,2.9-2.43,5.79-4.86,8.68-7.31,.25-.21,.57-.47,.61-.75,.31-2.13,.93-4.26,.35-6.51-1.93,.36-3.72,.61-5.46,1.04-.84,.21-1.75,.57-2.36,1.15-3.37,3.18-6.13,6.84-8.16,11.03-2.42,2.87-3.78,6.04-2.82,10.08,.57-.51,1.06-.9,1.51-1.35,2.34-2.38,4.66-4.78,6.98-7.17Zm-123.43,341.63c16.08-13.74,32.16-27.49,48.24-41.23,16.14-13.8,32.3-27.58,48.42-41.41,15.99-13.72,32.05-27.36,48.43-41.48-8.08-.06-15.5,.02-23.53-.06,31.63-34.21,62.81-67.92,94.41-102.1h-22.12c-.05-.15-.11-.3-.16-.45,16.87-15.51,33.73-31.01,50.64-46.55-13.25-17.92-26.4-35.7-39.71-53.68-32.47,40.54-64.79,80.88-97.35,121.52,8.06,.08,15.64-.03,23.67,.07-23.32,29.9-46.3,59.37-69.65,89.31h21.77c-.62,.96-.98,1.57-1.39,2.14-15.89,21.91-31.8,43.82-47.69,65.73-11.55,15.92-23.08,31.84-34.63,47.76-.53,.66-1.06,1.32-1.59,1.97l.68,.57c.52-.7,1.05-1.4,1.57-2.11ZM6.31,197.66c.33-1.07,.76-2.12,.97-3.21,.99-5.05,2.95-9.72,5.41-14.23,.56-1.02,1.15-1.73,2.35-1.9,2.69-.36,5.36-.88,8.06-1.14,3.26-.32,3.3-.23,3.99-3.31,3.24-14.34,8.01-28.15,14.34-41.4,10.47-21.92,24.44-41.32,42.42-57.71,5.52-5.04,11.3-9.85,17.31-14.3,18.03-13.34,37.93-23.03,59.38-29.59,17.88-5.47,36.18-8.45,54.84-9.13,6.82-.25,13.66,.06,20.48,.26,7.91,.23,15.75,1.28,23.51,2.69,21.04,3.83,41.02,10.76,59.83,20.96,13.08,7.09,25.25,15.47,36.51,25.2,8.62,7.45,16.54,15.56,23.82,24.31,.35,.42,.8,.77,1.17,1.11,3.78-4.25,7.46-8.4,11.15-12.55-13.14-15.67-28.03-29.18-44.76-40.65-18.53-12.7-38.54-22.36-60.05-28.92-15.25-4.65-30.84-7.54-46.71-8.77-9.52-.74-19.06-.8-28.62-.24-10.36,.6-20.65,1.71-30.86,3.57-20.45,3.73-40.04,10.07-58.67,19.28-24.26,11.99-45.51,27.97-63.53,48.21-10.94,12.29-20.27,25.7-28,40.21-7.92,14.87-13.92,30.5-18.2,46.79-2.97,11.3-4.92,22.79-6.14,34.45Zm46.97-31.97c.39-1.03,.68-1.71,.91-2.4,3.56-10.81,8.12-21.19,13.75-31.09,15.64-27.5,37.32-48.93,64.91-64.38,25.45-14.26,52.9-21.56,81.96-22.85,6.97-.31,13.99-.03,20.97,.25,9.97,.4,19.8,2.02,29.48,4.4,37.8,9.29,69.3,28.84,94.73,58.23,.46,.53,.98,1.01,1.54,1.59,1.47-1.64,2.86-3.04,4.09-4.58,1.11-1.39,2.53-1.97,4.21-2.24,1.79-.28,3.58-.58,5.33-1.03,.78-.2,1.46-.78,2.33-1.28-.67-.89-1.06-1.51-1.55-2.05-4.26-4.69-8.36-9.54-12.83-14.02-17.81-17.85-38.32-31.81-61.47-41.86-20.81-9.04-42.56-14.32-65.18-15.69-17.56-1.06-35.04,0-52.36,3.28-21.44,4.06-41.76,11.2-60.82,21.86-24.07,13.47-44.27,31.31-60.42,53.69-15.08,20.9-25.19,44.03-31.09,69.05-.1,.44-.05,.92-.07,1.34,3.14,.34,5.16-.94,6.47-3.58,1.33-2.68,3.62-4.37,6.12-5.9,1.34-.82,2.65-1.15,4.2-.97,1.54,.18,3.1,.17,4.79,.24Zm264.64,34.31c1.74-2.31,3.37-4.38,4.88-6.53,.8-1.13,1.35-2.43,2.07-3.61,.72-1.18,.57-2.32,.01-3.5-2.23-4.76-4.15-9.7-6.7-14.28-11.42-20.45-27.72-35.83-48.94-45.79-25.59-12-52.06-13.14-78.95-5.2-20.44,6.03-37.52,17.34-50.99,33.95-.5,.62-.95,1.28-1.62,2.19,2.58-.14,4.78-.21,6.97-.4,1.45-.13,2.7,.15,3.97,.92,6.39,3.9,12.81,7.75,19.27,11.55,1.1,.65,2.38,1.1,3.64,1.35,2.5,.5,5.05,.71,7.55,1.23,.98,.2,2.03,.71,2.75,1.4,1.97,1.86,3.75,3.93,5.69,5.83,1.41,1.38,2.8,2.73,2.9,5.34,2.9-3.41,5.81-5.91,10.17-5.93,4.36-.02,7.57,2.33,10.42,4.65,2.4-1.76,4.53-3.57,6.9-4.99,2.5-1.5,5.44-1.62,7.8-1.58,1.21-1.83,2.04-3.34,3.11-4.66,4.47-5.53,8.33-11.49,11.31-17.91,2.46-5.29,5.68-9.98,9.34-14.44,.7-.85,1.35-1.29,2.5-1.11,1.62,.26,3.27,.45,4.91,.49,1.35,.03,2.06,.59,2.59,1.8,1.51,3.39,3.23,6.66,5.82,9.39,1.36,1.43,2.67,2.91,4.07,4.3,.74,.74,1.12,1.5,1.15,2.59,.09,3.37,.4,6.73,.42,10.1,.02,2.67,.56,4.99,2.7,6.78,2.63,2.2,3.66,5.05,3.68,8.47,.02,2.6,.5,5.2,.76,7.74,1.68,.58,3.13,1.09,4.59,1.6,2.56-2.45,5.36-4.23,8.77-4.97,4.73-1.03,8.95,.53,11.6,4.57,.93,1.43,1.58,3.06,2.25,4.64,.43,1.03,.66,2.15,1.02,3.34,3.97-1.08,7.76-1.15,11.61,.71Zm-243.3-28.98c.44-1.1,.95-2.29,1.39-3.5,9.78-27.35,25.97-50.13,48.93-67.96,24.09-18.71,51.6-28.96,81.85-31.98,13.14-1.31,26.29-1.11,39.4,.79,13.67,1.98,26.85,5.67,39.49,11.19,26.47,11.57,48.18,29.09,65.27,52.36,.51,.69,1.05,1.35,1.88,2.41,.17-3.69,.39-6.86,.42-10.03,.01-1.39,.4-2.54,1.13-3.68,1.45-2.28,2.82-4.61,4.22-6.92-.33-.45-.53-.81-.8-1.11-4.08-4.4-8.03-8.94-12.28-13.17-14.31-14.25-30.75-25.48-49.05-34-22.64-10.54-46.5-15.76-71.42-16.03-6.73-.07-13.5,.34-20.21,.99-14.88,1.43-29.38,4.64-43.47,9.68-21.75,7.77-41.21,19.34-58.15,35.04-17.72,16.41-31.07,35.88-40.26,58.19-1.65,4.01-3.06,8.11-4.6,12.22,5.51,1.87,10.77,3.65,16.27,5.51Zm26.43-6.69c.26-.22,.43-.31,.5-.44,.31-.58,.6-1.17,.89-1.76,5.02-10.25,11.2-19.74,18.73-28.33,12.39-14.14,27.22-24.99,44.35-32.72,17.02-7.68,34.92-11.47,53.52-12.21,6.43-.26,12.82,.12,19.22,.78,9.2,.94,18.18,2.88,26.96,5.74,19.24,6.27,36.21,16.43,50.97,30.23,8.7,8.14,16.16,17.31,22.45,27.44,.5,.8,1.04,1.58,1.45,2.21,3.75-3.55,7.28-6.97,10.89-10.31,1.88-1.75,1.94-1.69,.55-3.82-7.43-11.36-16.15-21.61-26.31-30.62-27.15-24.09-58.88-37.09-95.13-38.96-9.8-.51-19.59,.13-29.3,1.48-11.43,1.59-22.6,4.32-33.43,8.36-17.46,6.51-33.28,15.8-47.16,28.26-16.76,15.04-29.28,33.07-37.63,53.99-.19,.48-.29,1.01-.51,1.8,.59-.33,.93-.43,1.14-.65,1.63-1.67,3.67-1.87,5.88-1.98,3.82-.19,7.55-.03,11.15,1.43,.22,.09,.48,.06,.82,.09Zm4.87,1.7c2.59,1.72,2.54,1.64,4.7,.31,2.52-1.55,5.13-2.94,7.7-4.41,3.44-1.96,6.95-3.73,11.05-3.8,1.45-.03,2.31-.86,3.13-2.02,3.73-5.25,7.97-10.07,12.67-14.47,20.27-18.93,44.55-28.42,72.01-30.11,12.32-.76,24.48,.53,36.4,3.84,19.22,5.35,35.84,15.17,49.91,29.21,10.17,10.15,18.15,21.89,23.84,35.12,.23,.53,.57,1,1.14,1.99,.87-3.66,2.97-5.35,6.04-6,.12-.41,.28-.79,.32-1.19,.41-4.01,.8-8.02,1.19-12.02,.05-.49-.15-1.14,.1-1.45,1.15-1.45,.3-2.54-.43-3.75-13.89-22.84-32.89-40.05-57.05-51.53-14.88-7.07-30.6-11.04-47.02-12-14.05-.82-27.96,.42-41.62,3.88-29.81,7.55-54.18,23.29-72.37,48.25-4.57,6.26-8.43,12.95-11.7,20.13Zm178.52,41.69c2.93,.49,5.87,1.28,8.18,3.42,2.41,2.23,3.37,5.16,3.7,8.3,2.29-.35,4.44-.68,6.62-1.01,2.3-4.92,3.89-6.52,7.71-7.56,1.1-.3,2.25-.46,3.39-.61,1.76-.22,2.13-.56,2.62-2.62,.38-1.61,.1-2.72-1.21-3.42-.91-.49-1.99-.79-3.02-.91-2.62-.29-5.05,.43-7.32,1.72-.82,.46-1.66,.91-2.79,1.54-.14-1.28-.23-2.15-.34-3.03-.44-3.35-.86-6.7-2.86-9.59-1.56-2.25-3.63-3.14-6.39-2.64-2.11,.39-3.79,1.49-5.47,2.7-1.08,.78-1.24,1.73-1.09,3.01,.19,1.6,.25,3.28-.03,4.86-.34,1.92-1.08,3.77-1.7,5.84Z"/><path class="cls-4" d="M6.31,197.66c1.22-11.66,3.17-23.15,6.14-34.45,4.28-16.29,10.28-31.92,18.2-46.79,7.73-14.51,17.05-27.92,28-40.21,18.02-20.24,39.26-36.22,63.53-48.21,18.63-9.21,38.22-15.56,58.67-19.28,10.21-1.86,20.5-2.97,30.86-3.57,9.55-.55,19.1-.5,28.62,.24,15.88,1.23,31.46,4.12,46.71,8.77,21.51,6.56,41.51,16.21,60.05,28.92,16.73,11.47,31.62,24.98,44.76,40.65-3.68,4.14-7.37,8.29-11.15,12.55-.37-.34-.81-.69-1.17-1.11-7.28-8.75-15.21-16.86-23.82-24.31-11.26-9.73-23.43-18.11-36.51-25.2-18.82-10.2-38.79-17.13-59.83-20.96-7.77-1.41-15.61-2.46-23.51-2.69-6.83-.2-13.67-.51-20.48-.26-18.66,.68-36.96,3.66-54.84,9.13-21.45,6.56-41.35,16.25-59.38,29.59-6.01,4.45-11.78,9.26-17.31,14.3-17.98,16.39-31.95,35.79-42.42,57.71-6.33,13.25-11.1,27.07-14.34,41.4-.7,3.08-.73,2.99-3.99,3.31-2.7,.26-5.37,.78-8.06,1.14-1.19,.16-1.79,.87-2.35,1.9-2.45,4.5-4.41,9.17-5.41,14.23-.21,1.09-.64,2.14-.97,3.21Z"/><path class="cls-1" d="M53.28,165.69c-1.69-.08-3.25-.06-4.79-.24-1.55-.18-2.86,.15-4.2,.97-2.49,1.53-4.79,3.22-6.12,5.9-1.31,2.64-3.33,3.91-6.47,3.58,.02-.42-.03-.9,.07-1.34,5.9-25.02,16.01-48.15,31.09-69.05,16.15-22.38,36.34-40.22,60.42-53.69,19.05-10.66,39.38-17.79,60.82-21.86,17.32-3.28,34.8-4.34,52.36-3.28,22.62,1.37,44.37,6.65,65.18,15.69,23.15,10.05,43.65,24.01,61.47,41.86,4.47,4.48,8.57,9.33,12.83,14.02,.49,.54,.88,1.15,1.55,2.05-.87,.49-1.55,1.08-2.33,1.28-1.75,.45-3.54,.74-5.33,1.03-1.67,.27-3.1,.85-4.21,2.24-1.23,1.54-2.62,2.95-4.09,4.58-.56-.58-1.08-1.06-1.54-1.59-25.44-29.38-56.93-48.94-94.73-58.23-9.69-2.38-19.51-3.99-29.48-4.4-6.98-.28-14-.56-20.97-.25-29.06,1.3-56.51,8.6-81.96,22.85-27.58,15.45-49.27,36.89-64.91,64.38-5.63,9.9-10.18,20.28-13.75,31.09-.23,.7-.52,1.37-.91,2.4Z"/><path class="cls-3" d="M74.62,171.02c-5.51-1.86-10.76-3.64-16.27-5.51,1.54-4.11,2.95-8.22,4.6-12.22,9.19-22.31,22.54-41.77,40.26-58.19,16.95-15.7,36.4-27.27,58.15-35.04,14.09-5.04,28.6-8.25,43.47-9.68,6.71-.64,13.47-1.06,20.21-.99,24.92,.27,48.78,5.48,71.42,16.03,18.3,8.52,34.74,19.75,49.05,34,4.25,4.23,8.2,8.77,12.28,13.17,.27,.3,.48,.66,.8,1.11-1.4,2.31-2.78,4.64-4.22,6.92-.72,1.14-1.11,2.29-1.13,3.68-.03,3.17-.25,6.34-.42,10.03-.83-1.06-1.38-1.72-1.88-2.41-17.08-23.27-38.79-40.79-65.27-52.36-12.64-5.52-25.82-9.2-39.49-11.19-13.11-1.9-26.26-2.1-39.4-.79-30.25,3.02-57.75,13.27-81.85,31.98-22.96,17.83-39.15,40.61-48.93,67.96-.43,1.21-.95,2.39-1.39,3.5Z"/><path class="cls-6" d="M101.04,164.33c-.34-.03-.6,0-.82-.09-3.59-1.46-7.32-1.61-11.15-1.43-2.21,.11-4.25,.3-5.88,1.98-.21,.22-.55,.32-1.14,.65,.22-.79,.31-1.32,.51-1.8,8.34-20.92,20.86-38.94,37.63-53.99,13.88-12.46,29.69-21.75,47.16-28.26,10.83-4.04,22-6.77,33.43-8.36,9.71-1.35,19.5-1.99,29.3-1.48,36.26,1.87,67.98,14.87,95.13,38.96,10.16,9.01,18.88,19.27,26.31,30.62,1.39,2.12,1.34,2.07-.55,3.82-3.6,3.34-7.14,6.75-10.89,10.31-.41-.62-.95-1.41-1.45-2.21-6.28-10.12-13.74-19.3-22.45-27.44-14.76-13.8-31.73-23.96-50.97-30.23-8.78-2.86-17.76-4.8-26.96-5.74-6.4-.65-12.79-1.03-19.22-.78-18.6,.75-36.5,4.53-53.52,12.21-17.14,7.73-31.97,18.57-44.35,32.72-7.53,8.59-13.71,18.08-18.73,28.33-.29,.59-.58,1.18-.89,1.76-.07,.13-.24,.22-.5,.44Z"/><path class="cls-17" d="M105.91,166.03c3.27-7.19,7.14-13.87,11.7-20.13,18.19-24.95,42.56-40.7,72.37-48.25,13.66-3.46,27.57-4.7,41.62-3.88,16.42,.96,32.15,4.93,47.02,12,24.16,11.48,43.15,28.69,57.05,51.53,.74,1.21,1.59,2.3,.43,3.75-.25,.31-.05,.96-.1,1.45-.39,4.01-.78,8.02-1.19,12.02-.04,.39-.21,.77-.32,1.19-3.07,.65-5.18,2.34-6.04,6-.57-.99-.91-1.46-1.14-1.99-5.69-13.24-13.66-24.97-23.84-35.12-14.07-14.04-30.69-23.86-49.91-29.21-11.92-3.32-24.09-4.6-36.4-3.84-27.46,1.69-51.74,11.18-72.01,30.11-4.7,4.39-8.94,9.22-12.67,14.47-.82,1.16-1.68,1.99-3.13,2.02-4.1,.07-7.61,1.84-11.05,3.8-2.57,1.47-5.19,2.85-7.7,4.41-2.16,1.33-2.11,1.41-4.7-.31Z"/><path class="cls-2" d="M242.49,462.1c11.54-15.92,23.08-31.84,34.63-47.76,15.89-21.91,31.8-43.82,47.69-65.73,.41-.57,.77-1.18,1.39-2.14h-21.77c23.35-29.94,46.33-59.41,69.65-89.31-8.02-.1-15.6,0-23.67-.07,32.56-40.65,64.87-80.99,97.35-121.52,13.31,17.99,26.45,35.76,39.71,53.68-16.91,15.54-33.77,31.05-50.64,46.55,.05,.15,.11,.3,.16,.45h22.12c-31.6,34.18-62.77,67.89-94.41,102.1,8.03,.08,15.45,0,23.53,.06-16.38,14.12-32.43,27.77-48.43,41.48-16.12,13.83-32.28,27.61-48.42,41.41-16.08,13.75-32.16,27.49-48.24,41.23-.22-.15-.44-.29-.66-.44Zm185.53-221.95c-.05-.17-.1-.35-.16-.52,17.89-17.33,35.78-34.67,53.77-52.1-11.65-15.32-23.17-30.46-34.85-45.82-29.28,37.34-58.31,74.38-87.34,111.41-.03,.04,.02,.15,.05,.22,.03,.07,.07,.14,.13,.25,3.44,0,6.9-.01,10.36,0,3.39,.02,6.79-.08,10.6,.09-22.6,29.63-44.88,58.83-67.43,88.4h22.78c-23.88,31.58-47.48,62.78-71.17,94.11,.97,.92,1.9,1.8,2.89,2.74,36.25-32.07,72.34-64,108.42-95.93-.06-.15-.12-.3-.18-.46-2.27,0-4.54,0-6.8,0-2.31,0-4.61,.04-6.92-.01-2.23-.05-4.49,.22-6.96-.21,31.67-34.08,63.11-67.93,94.94-102.18h-22.14Z"/><path class="cls-12" d="M78.1,211.1c-4.66-1.21-9.25-1.1-13.74,.74-2.01-1.09-3.23-2.91-4.14-4.89-.73-1.6-1.12-3.35-1.6-5.05-.4-1.39-1.1-2.51-2.43-3.16-.18-1.02-.16-2.13-.58-3.04-1-2.11-2.21-4.13-3.33-6.18,.15-.27,.4-.53,.42-.8,.11-1.99,.18-3.98,.26-6.04,.96-.06,1.6-.14,2.25-.14,.49,0,.98,.08,1.46,.18,2.14,.44,2.69,.2,4.05-1.86-.47-.51-.96-1.05-1.45-1.59-1.33-1.48-1.15-3.04,.52-4.11,.55-.35,1.19-.57,1.76-.89,.98-.55,1.95-1.13,2.92-1.7,2.14,.75,4.28,1.49,6.41,2.23-.07,1.67-.96,2.41-1.94,2.99-2.77,1.64-3.73,3.87-3.94,7.2-.3,4.69,1.42,8.67,2.83,12.82,.41,1.22,1.13,2.33,1.81,3.68,1.48-.7,2.77-1.31,4.27-2.03-.63-1.31-1.24-2.38-1.66-3.51-1.29-3.53-2.84-6.99-2.51-10.92,.1-1.27,.55-2.12,1.49-2.92,1.24-1.05,2.67-2.09,3.41-3.46,1.78-3.27,4.58-5.27,7.67-7.03,1.01,0,1.81,.23,1.72,1.51-.19,2.61-.3,5.23-.61,7.82-.07,.57-.75,1.3-1.32,1.52-2.2,.84-2.32,.84-1.75,3.07,.5,1.93,.24,3.54-1.41,4.82-.58,.45-1.16,.97-1.55,1.58-.52,.8-1.09,1.69-1.21,2.6-.31,2.34,.14,4.48,1.74,6.43,1.28,1.56,2.44,3.39,.88,5.56-.25,.35-.14,.95-.21,1.44-.15,1.05-.32,2.09-.48,3.14Z"/><path class="cls-5" d="M137.31,176.62c.11,1.06,.09,2.15,.34,3.18,.65,2.64-.01,5.21-1.16,7.39-1.13,2.14-2.73,4.05-5.48,4.89-6.1,1.87-9.18,6.55-10.47,12.55-.27,1.27-.31,2.59-.45,3.77-2,.64-3.92,1.25-5.84,1.87,.3-1.15,.78-2.29,.86-3.46,.09-1.34-.17-2.67-.1-4.06,.07-1.34-.65-2.84-1.36-4.08-.66-1.16-2.09-1.84-2.12-3.44,0-.24-.39-.63-.64-.67-1.14-.17-1.48-1.16-2.16-1.82-.92-.9-1.98-1.71-3.1-2.32-1.45-.79-1.59-.64-2.39,1.16-.77-.46-1.54-.91-2.28-1.35-.9-4.48-.32-8.42,3.74-11.2,1.7,.51,3.38,1.14,5.12,1.5,3.09,.66,3.1,.59,4.77-2.23,1.26-2.13,2.95-3.35,5.6-3.2,2.33,.13,4.65,.44,7.01,.08,1.5-.23,3.09-.27,4.33,1.07,.31,.33,1.06,.33,1.62,.35,1.39,.05,2.78,.02,4.17,.02Z"/><path class="cls-5" d="M24.04,214.64c-1.25-1.06-2.43-2.22-3.77-3.15-3.5-2.42-7.24-2.94-11.19-1.11-.34,.16-.71,.26-1.36,.49,.16-.81,.23-1.35,.37-1.87,1.76-6.32,3.46-12.66,5.35-18.94,.66-2.17,1.84-4.19,2.74-6.29,.38-.89,1.05-1.12,1.93-1.22,4-.45,7.98-.96,11.98-1.45,.41-.05,.83-.04,1.22-.16,2.55-.8,4.49-.29,6.12,2.07,.96,1.4,2.61,2.34,3.94,3.49-.25,.17-.72,.34-.72,.51,0,1.53-.91,2.33-1.99,3.31-.97,.87-2.27,1.9-2.11,3.59-.63,.31-1.26,.62-1.97,.98v2.98c-.82,.99-1.56,2.07-2.5,2.93-1.07,.97-2.35,1.71-3.51,2.6-1.75,1.34-3.49,2.66-5.79,2.95-.68,.09-1.32,.5-1.9,.73-.23,1.53,1.02,1.71,1.73,2.23,2.35,1.71,2.41,1.77,1.57,4.63-.07,.23-.1,.48-.15,.72Z"/><path class="cls-5" d="M139.34,161.94c4.23-.87,7.94,.09,11.54,2.57,4.32,2.97,8.94,5.51,13.42,8.25,.41,.25,.78,.54,1.59,1.1-1.73,.68-3.1,1.29-4.51,1.75-1.17,.38-1.96,.95-2.37,2.2-.77,2.33-1.67,4.62-2.6,6.9-.98,2.4-2.05,4.76-3.15,7.29,.94,.65,2,1.38,3.06,2.11-.99,2.16-1.99,4.32-3,6.52,.27,.49,.57,1.03,.87,1.57-.37,.18-.73,.38-1.11,.54-2.46,1.09-3.14,.77-4.73-1.32-1.73-2.27-3.61-4.46-5.61-6.5-1.06-1.08-2.54-1.77-3.95-2.72,2.87-2.39,2.78-5.98,3.83-9.11,.26-.78-.1-1.78-.22-2.67-.46-3.37,.74-6.1,3.18-8.35,.3-.28,.68-.47,1.22-.84-1.17-1.32-2.11-2.39-3.2-3.63-1.12,.9-2.18,1.75-3.23,2.59-.42-.99-.69-2.09-1.29-2.96-.99-1.44-2.18-2.75-3.32-4.09-.18-.21-.56-.26-.85-.38,0-.15,.01-.3,.02-.46,.76-.03,1.51-.07,2.27-.1,.72-.09,1.43-.18,2.15-.27Z"/><path class="cls-12" d="M367.05,127.61c4.13-3.63,8.22-7.31,12.43-10.85,1.37-1.15,2.1-2.32,2.1-4.15,0-2.37,.36-4.74,.48-7.12,.04-.86-.16-1.73-.29-2.89,1.24-1.34,2.67-2.9,4.11-4.46,.24-.04,.49-.07,.73-.12,1.93-.37,2.59,.2,2.36,2.11-.06,.48-.36,.94-.36,1.41,.02,1.69-.83,3.64,1.51,4.99,1.21-.93,2.48-1.9,3.74-2.87,1.76,.84,1.84,.83,2.48,3.51,.27,1.12,.64,1.71,1.86,1.84,.49,.05,.93,.71,1.39,1.09,0,0-.04,.02-.04,.02-1.9,.03-2.01,.11-2.13,1.64-.04,.47,.02,.95,.03,1.42-.21,.68-.3,1.43-.64,2.04-2.14,3.81-3.08,8.04-4.37,12.15-.38,1.22-.48,2.52-.72,3.78-2.01,.61-3.38,1.78-3.73,3.98-.26,1.65-1.27,2.72-2.52,2.38-1.19-.32-2.52-.95-3.28-1.87-1.77-2.14-2.41-2.55-5.04-2h0c0-.73,.02-1.46,0-2.19-.06-2.09-2.24-3.64-4.22-2.8-1.51,.64-2.75,.72-4.07-.34-.48-.39-1.19-.48-1.8-.71Z"/><path class="cls-10" d="M391.09,144.95c1.76-.02,3.52-.04,5.28-.07-.57,.21-1.13,.54-1.71,.6-.95,.1-1.92,.03-2.81,.03-.18,.52-.34,.75-.33,.97,.06,2.02,0,3.95-2.09,5.13-.26,.14-.34,1.13-.12,1.49,.98,1.61,5.19,1.96,6.14,.39,1.09-1.81,2.57-2.87,4.43-3.63,1.03-.42,1.58-1.41,1.32-2.38-.29-1.08-.08-1.81,.41-2.75,.35-.66,.41-1.69,.16-2.39-.77-2.11-1.13-4.71-4.29-4.67-.24,0-.48-.09-.73-.14,.04-.81,.07-1.61,.11-2.42,.24,.06,.53,.06,.7,.2,1.54,1.31,1.52,1.3,3.3,.13,.8-.53,1.64-1.16,2.96-.37,0,1.06,.06,2.27-.01,3.48-.1,1.67-.32,3.33-.44,5-.11,1.41,.53,2.37,1.51,2.39,1.07,.02,1.65-.69,1.94-2,.36-1.58,.71-3.19,1.37-4.65,.83-1.83,1.28-3.66,1.07-5.65,1.02-.07,1.68,.37,1.46,1.42-.53,2.5-1.16,4.99-1.79,7.47-.15,.62-.55,1.18-.64,1.8-.23,1.65-1.09,3-2.3,3.92-1.05,.79-1.2,1.64-1.18,2.74,.02,1.7,0,3.4,0,5.38-1.46-.14-2.54-.25-3.95-.39,0,1.44,0,2.73,0,4.03q0,2.56-2.51,3.55c-.46,.18-.87,.46-1.33,.64-1.73,.68-3.46,1.34-5.19,2.01-2.6-7.39-6.09-14.38-9.67-21.33-.33-.64-.72-1.26-1.08-1.89-.22-.3-.38-.81-.66-.88-2.74-.75-3.81-2.49-3.28-5.26,.01-.08,0-.16,0-.24,1.26-.18,2.24,.31,3.01,1.29,.66,.83,1.27,1.72,2,2.47,1.59,1.64,2.6,3.51,2.94,5.8,.23,1.54,.74,3.03,2.47,3.66,1.74-.9,1.18-2.73,1.64-4.04,.7-.31,1.29-.58,1.89-.84Z"/><path class="cls-10" d="M369.17,169.3c-.38-.67-.75-1.35-1.13-2.02,1.36,.05,2.2-.44,2.26-1.95,.03-.64,.17-1.34,.49-1.88,.43-.73,.98-1.5,1.67-1.95,1.14-.75,2.44-1.26,3.91-1.98,.48,.16,1.24,.52,2.04,.62,.47,.06,1.37-.26,1.42-.52,.35-1.99,2.04-3.9,.39-6.05-.34-.44-.92-1.11-.04-1.69,.81,1.65,1.63,3.3,2.44,4.95-.88,1.24-.09,1.68,.95,2,.24,.45,.47,.89,.71,1.34-.17,.17-.52,.4-.49,.5,.46,1.47-.2,2.91-.13,4.32,.09,2-.82,3.12-2.19,4.31-1.48,1.28-2.67,2.8-2.41,5.07,.1,.88-.47,1.85-.78,2.76-.15,.45-.48,.85-.61,1.31-.61,2.2-2.8,4.12-5.03,4.04-1.47-.05-2.35,.62-3.01,1.69-.32,.51-.3,1.23-.41,1.86-.38,2.16-1.45,2.9-3.57,2.48-.71-.14-1.42-.27-1.99-.38-2.48,1.38-3.83,3.2-3.34,6.03,.08,.48,0,.98,.01,1.47q.03,2.37,2.47,3.2c.16,.66,.33,1.32,.49,1.98-.85,.95,.36,1.84,.06,2.77-1.62,.9-3.23,1.8-4.98,2.77-1.54-1.24-3.27-2.64-5-4.05,2.53-.93,3.15-3.26,3.98-5.44,.28-.73,.49-1.52,.93-2.14,.66-.94,.68-1.7,.01-2.65-.44-.62-.63-1.42-.93-2.13,.79-1.88,2.14-3.21,3.9-4.23,3.54-2.06,7.04-4.21,10.54-6.33,.62-.38,1.21-.81,1.94-1.32-.67-1.36-1.31-2.65-1.95-3.95,2.38-1.21,3.57-3.74,6.01-5.12-1.32-1.28-2.04-2.51-1.33-4.27,.18-.45-.61-1.28-.94-1.91-1.77,.43-3.05,1.28-3.35,2.65-.41,1.89-1.62,2.86-3.02,3.83Z"/><path class="cls-14" d="M391.83,166.22c1.73-.67,3.46-1.33,5.19-2.01,.46-.18,.88-.46,1.33-.64q2.5-.99,2.51-3.55c0-1.29,0-2.58,0-4.03,1.41,.14,2.5,.25,3.95,.39,0-1.98,.02-3.68,0-5.38-.02-1.1,.14-1.95,1.18-2.74,1.21-.92,2.08-2.28,2.3-3.92,.09-.62,.48-1.19,.64-1.8,.62-2.48,1.25-4.97,1.79-7.47,.22-1.05-.44-1.49-1.46-1.42-2.05-.42-2.56-1.44-1.22-2.81,.86-.88,2.07-1.42,3.12-2.12,2.08,2.6,4.07,5.26,6.25,7.77,1.67,1.92,2.82,3.96,2.82,6.57,0,.81,.17,1.62,.27,2.42-.97,0-1.94,0-3.1,0-.59,2.83-1.39,5.45,.85,7.82,.39,.41,.64,.94,.96,1.42,.55,.82,.61,1.65,.06,2.51-.23,.37-.37,.79-.66,1.41,1.55,.12,2.83,.22,4.11,.32-.66,.84-1.33,1.68-1.99,2.52-.24-.2-.47-.55-.73-.59-1.86-.26-2.95-1.54-3.53-3.09-.64-1.7-1.63-2.97-3.03-3.7-.1-.87-.18-1.54-.26-2.21,.91-1.15,1.81-2.29,2.88-3.65-1.15-.99-2.22-1.91-3.52-3.03-1.92,2.38-4.11,4.31-5.31,7.05-.75,1.71-1.55,3.4-2.33,5.1-.87,0-1.1,.51-1.11,1.27-.03,2.74-1.26,4.83-3.49,6.36-.71,.49-1.53,.83-2.27,1.27-.48,.29-1.14,.54-1.33,.98-.85,1.97-2.32,1.98-4.03,1.49-.29-.85-.58-1.7-.87-2.55Z"/><path class="cls-11" d="M34.59,197.85v-2.98c.71-.35,1.34-.66,1.97-.98,.24-.04,.53-.02,.71-.14,1.2-.87,2.35-1.63,3.99-.92,.82,.36,1.23-.45,1.59-1.13,.44-.82,.97-1.59,1.46-2.39,.38,.27,.76,.53,1.14,.8-.31,1.17-1.04,2.41-.84,3.48,.31,1.66,.02,2.94-.81,4.34-.74,1.24-.37,2.26,.83,3.17,1.6,1.21,3.33,1.94,5.39,1.32-.34,.72-.65,1.47-1.03,2.17-1.06,1.94-2.11,3.89-3.23,5.79-1.08,1.82-1.2,3.68-.52,5.65,.15,.44,.13,.95,.19,1.45-2.83,.41-5.56,.8-8.3,1.2-.26-.18-.58-.56-.76-.5-1.71,.57-2.71-.36-3.73-1.57,.81-1.25,1.54-2.42,2.31-3.56,.9-1.33,.9-2.92-.05-4.3-.3-.44-.55-.93-.78-1.32,.2-.3,.25-.51,.37-.56,.9-.38,1.79-.81,2.73-1.08,.95-.28,1.28-.84,1.35-1.78,.16-2.37-1.55-5.08-3.96-6.16Z"/><path class="cls-12" d="M354.32,149.26c1.25-1.69,2.82-2.4,5.03-2.27,5.55,.32,11.12,.39,16.68,.56,2.48,.07,2.52,.1,3.13,2.75,.31,1.57-1.48,1.83-1.92,3.12,.19,.32,.45,.72,.66,1.15,.35,.72,.12,1.55-.57,1.59-1.61,.09-2.32,1.36-3.5,2.36-.67-.57-1.25-1.14-1.89-1.61-1.68-1.23-4.28-.62-5.18,1.22-.94,1.93-2.42,2.97-4.68,3.08-.12-.46-.2-.85-.32-1.23-.65-2.04-1.48-3.86-4.16-3.63-1.18,.1-1.72-.86-1.63-1.75,.2-2.06-.88-3.63-1.64-5.34Z"/><path class="cls-13" d="M363.29,200.82c-.16-.66-.33-1.32-.49-1.98-.1-1.6,.31-3.23-.77-4.74-.52-.73-.37-1.7,.56-2.36,.43-.31,.68-.88,1.04-1.36,.68,.45,1.07,.73,1.49,.97,1.29,.76,2.66,.77,4.04,.33,1.41-.44,.92-1.73,1.14-2.71,.07-.32,.27-.61,.3-.93,.14-1.49,.78-2.37,2.39-2.64,.69-.12,1.28-.87,1.9-1.35,.43-.34,.77-.87,1.25-1.04,1.29-.45,1.88-1.52,2.52-2.56,1.4-2.25,2.79-4.51,4.21-6.82,1.92,.94,2.61,3.08,4.65,3.4,.21,.03,.45,.69,.45,1.06,.02,1.29,.51,2.06,1.9,1.97,1-.07,2.21,.41,2.78-.94,1.38,2.59,3.36,4.64,5.68,6.39-1.72,.68-3.31,.45-4.82-.62-.79-.56-1.64-1.07-2.51-1.49-1.31-.63-2.66-1.24-4.13-.61-.11,.2-.25,.34-.26,.48-.04,2.2-.06,4.39-.08,6.59-2.14,.22-4.27,.43-6.41,.65-.5-.74-1.16-.58-1.71-.18-1.74,1.29-3.85,1.13-5.8,1.62-1.71,.43-3.53,.78-5.02,1.64-1.56,.91-3.09,2.18-3.25,4.55,.7,.23,1.36,.58,2.04,.66,1.12,.13,2.08,.37,2.52,1.58,.08,.21,.54,.29,.82,.43-.13,.49-.26,.98-.39,1.46-.22,.1-.45,.2-.67,.3l.59,.21c-.87,1.02-1.98,.3-2.97,.41-.06-.71-.12-1.42-.19-2.38h-2.79Zm20.24-12.27c0-.87,.08-1.77-.02-2.64-.15-1.22-1.34-1.93-2.49-1.58-1.83,.55-3.66,1.11-5.64,1.71v2.41c2.77-.4,5.19,1.61,8.15,.1Z"/><path class="cls-12" d="M244.54,156.27c1.66-4.43,4.17-8.35,7.29-11.89,1.34-1.53,3.41-1.29,4.37,.52,.8,1.51,1.53,3.07,2.36,4.74-3.21,2.35-7.69,2.92-9.66,7.25,1.26,.67,2.47,1.3,3.46,1.83,3.15-1.8,6.12-3.5,9.3-5.32,1.29,1.32,2.56,2.56,3.75,3.87,.3,.33,.45,.88,.47,1.34,.13,2.84,.2,5.69,.3,8.88-.83-.63-1.46-1.08-2.07-1.57-2.62-2.1-5.41-3.44-8.87-2.23-.36,.13-.81,.01-1.22,0-1.04-2.57-3.8-2.18-5.92-3.26,.71-2.7-.75-3.71-3.13-3.95-.15-.02-.29-.14-.44-.22Z"/><path class="cls-13" d="M34.59,197.85c2.42,1.08,4.13,3.8,3.96,6.16-.06,.94-.4,1.5-1.35,1.78-.94,.28-1.83,.7-2.73,1.08-.12,.05-.18,.26-.37,.56,.23,.39,.48,.87,.78,1.32,.95,1.38,.95,2.97,.05,4.3-.78,1.14-1.51,2.31-2.31,3.56,1.02,1.21,2.02,2.14,3.73,1.57,.18-.06,.5,.32,.76,.5-2.49,1.34-4.98,2.67-7.51,4.03-1.8-2.61-3.68-5.35-5.57-8.08,.05-.24,.08-.48,.15-.72,.84-2.86,.78-2.92-1.57-4.63-.71-.52-1.97-.69-1.73-2.23,.59-.23,1.22-.65,1.9-.73,2.3-.3,4.04-1.61,5.79-2.95,1.15-.89,2.44-1.63,3.51-2.6,.94-.86,1.67-1.94,2.5-2.93Z"/><path class="cls-10" d="M98.36,201.14c-4.27-.04-8.07,1.28-11.17,4.21-1.34,1.27-2.31,2.92-3.45,4.4-.38,.5-.76,1.01-1.14,1.51,.12-1.45-.15-3.08,.44-4.31,.82-1.74,.76-3.25,.12-4.9-.35-.92-.76-1.81-1.07-2.74-1.16-3.47-1.33-6.73,2.03-9.22,.26-.19,.45-.48,.7-.69,1.27-1.04,1.52-2.29,.74-3.72-.8-1.46-.81-2.77,.48-4.01,.38-.36,.38-1.08,.71-1.53,.3-.42,.8-.7,1.22-1.04,0,1.15,0,2.3,.01,3.45,.09,.8-.09,1.78,.31,2.37,1.17,1.73,2.15,3.51,3.09,5.39,.97,1.94,1.29,3.32-.14,5.19,1.1,.58,2.02,1.04,2.92,1.54,1.78,.98,3.74,1.79,4.2,4.12Z"/><path class="cls-15" d="M87.97,179.09c-.41,.34-.91,.62-1.22,1.04-.32,.45-.33,1.17-.71,1.53-1.29,1.25-1.27,2.55-.48,4.01,.78,1.43,.53,2.67-.74,3.72-.25,.21-.44,.49-.7,.69-3.36,2.49-3.19,5.75-2.03,9.22,.31,.93,.71,1.83,1.07,2.74,.64,1.65,.7,3.16-.12,4.9-.58,1.23-.32,2.86-.44,4.31,0,0,0-.02,0-.02-.73,.17-1.45,.33-2.17,.5-.78-.21-1.56-.42-2.34-.63,.16-1.05,.33-2.09,.48-3.14,.07-.48-.04-1.09,.21-1.44,1.56-2.17,.4-4-.88-5.56-1.6-1.95-2.06-4.09-1.74-6.43,.12-.91,.7-1.8,1.21-2.6,.39-.61,.97-1.13,1.55-1.58,1.65-1.28,1.91-2.89,1.41-4.82-.57-2.23-.46-2.23,1.75-3.07,.57-.22,1.25-.95,1.32-1.52,.31-2.59,.42-5.21,.61-7.82,.1-1.28-.71-1.5-1.72-1.51,1.46-1.14,2.82-2.48,4.43-3.34,1.04-.55,2.47-.38,3.72-.53,.51,.67,1.02,1.35,1.57,2.09-.5,.37-.75,.71-1.01,.72-1.37,.05-1.8,.92-2.35,2.04-1.05,2.14-.54,4.33-.68,6.49h-.01Z"/><path class="cls-15" d="M349.91,181.81c.44-.33,.84-.72,1.32-.98,.99-.55,1.03-1.28,.53-2.16,1.61,.03,3.06-.19,3.99-1.8,.59-1.01,1.41-1.88,2.17-2.86,.56,.32,.95,.46,1.24,.72,1.52,1.35,1.51,2-.03,3.33-.54,.47-1.13,.88-1.6,1.25,.14,.91,.26,1.63,.37,2.35-3.17,2.58-4.99,6.2-7.13,9.53-1.11,1.75-1.62,3.89-2.31,5.89-1.36,3.97-1.33,3.98-5.17,5.2-.23,.07-.49,.05-.73,.06-.26-.18-.5-.45-.79-.52-1.72-.41-2.34-1.45-2.24-3.22,.13-2.37,.02-4.75,.04-7.12,0-.78,.11-1.56,.17-2.52,1.15,0,2.05,.06,2.94-.02,1.05-.09,2.11-.21,3.12-.48,1.79-.48,2.43-1.42,2.69-3.25,.09-.66,.53-1.26,.8-1.89,.21-.5,.41-1.01,.61-1.52Z"/><path class="cls-15" d="M411.17,128.73c-1.05,.69-2.26,1.24-3.12,2.12-1.34,1.37-.84,2.39,1.22,2.81,.2,1.99-.25,3.82-1.07,5.65-.66,1.46-1.02,3.08-1.37,4.65-.3,1.31-.87,2.03-1.94,2-.98-.02-1.62-.98-1.51-2.39,.13-1.67,.35-3.33,.44-5,.07-1.2,.01-2.42,.01-3.48-1.32-.78-2.16-.15-2.96,.37-1.78,1.17-1.76,1.18-3.3-.13-.17-.14-.46-.14-.7-.2,.04-1.48,.08-2.95,.12-4.43,.27,.15,.61,.24,.8,.46,1.05,1.22,2,1.26,2.77-.02,.95-1.59,1.87-3.2,2.67-4.87,.37-.78,.53-1.71,.58-2.58,.09-1.54,.06-3.09,.02-4.64-.05-1.93-.09-1.95-2.34-2.2,1.03-2.52,1.76-3.41,4.44-5.29,.46,2.23,.9,4.37,1.33,6.52,.08,.4,.15,.81,.18,1.22,.31,3.51,1.62,6.62,3.73,9.42Z"/><path class="cls-5" d="M324.24,213.63c-1.13-.94-2.25-1.88-3.09-2.58,.06-2.35,.05-4.45,.21-6.53,.06-.77,.42-1.58,.84-2.23,.85-1.3,1.77-2.58,2.8-3.75,3.05-3.46,4.75-7.61,6.31-11.97h4.32c.32,.21,.65,.43,1.05,.7-1.51,.21-2.09,1.35-2.68,2.47-.72,1.35-.3,2.42,.64,3.56,.93,1.13,.62,4.83-.3,6.04-1.77,2.34-3.45,4.7-4.75,7.37-.71,1.47-1.93,3.23-3.32,3.69-1.96,.65-2.15,1.66-2.05,3.23Z"/><path class="cls-13" d="M134.9,162.77c.29,.12,.67,.17,.85,.38,1.14,1.33,2.33,2.64,3.32,4.09,.6,.87,.87,1.97,1.29,2.96-1.02,2.14-2.03,4.29-3.05,6.43-1.39,0-2.78,.03-4.17-.02-.55-.02-1.31-.01-1.62-.35-1.24-1.35-2.83-1.3-4.33-1.07-2.36,.36-4.69,.05-7.01-.08-2.64-.15-4.34,1.07-5.6,3.2-1.67,2.82-1.68,2.89-4.77,2.23-1.73-.37-3.41-.99-5.12-1.5,1.94-2.2,3.75-4.53,5.86-6.56,2.16-2.08,4.66-3.79,7.55-4.81,.07,2.49,.87,3.55,3.35,4.4,.53,.18,1.33,.15,1.58,.51,1.1,1.55,2.65,1.23,4.02,.94,2.19-.45,4.1-.32,5.89,1.19,.49,.41,1.44,.27,2.29,.4,.14-1.46,.08-2.63,.39-3.7,.57-1.95,.02-3.49-1.23-4.97-.87-1.03-2.02-1.98-1.93-3.56,.17,0,.35-.01,.52-.02,.67,.63,1.31,.63,1.93-.08h-.02Z"/><path class="cls-14" d="M392.65,179.12c-.57,1.35-1.78,.88-2.78,.94-1.38,.09-1.88-.68-1.9-1.97,0-.37-.24-1.02-.45-1.06-2.04-.32-2.72-2.46-4.65-3.4-1.43,2.31-2.82,4.57-4.21,6.82-.64,1.04-1.23,2.11-2.52,2.56-.48,.17-.82,.7-1.25,1.04-.62,.49-1.21,1.24-1.9,1.35-1.61,.27-2.25,1.15-2.39,2.64-.03,.32-.23,.61-.3,.93-.22,.98,.27,2.26-1.14,2.71-1.38,.43-2.75,.42-4.04-.33-.41-.24-.81-.52-1.49-.97-.36,.48-.61,1.05-1.04,1.36-.94,.66-1.08,1.64-.56,2.36,1.08,1.51,.67,3.14,.77,4.74q-2.45-.82-2.47-3.2c0-.49,.07-1-.01-1.47-.49-2.83,.86-4.65,3.34-6.03,.57,.11,1.28,.24,1.99,.38,2.12,.43,3.19-.32,3.57-2.48,.11-.63,.1-1.35,.41-1.86,.66-1.07,1.54-1.74,3.01-1.69,2.23,.08,4.41-1.84,5.03-4.04,.13-.46,.46-.86,.61-1.31,.31-.91,.88-1.88,.78-2.76-.26-2.27,.93-3.79,2.41-5.07,1.37-1.19,2.28-2.31,2.19-4.31-.06-1.41,.6-2.84,.13-4.32-.03-.11,.32-.33,.49-.5,.77,1.97,1.63,3.91,2.27,5.93,1.3,4.07,3.01,7.92,5.36,11.49,.31,.47,.5,1.02,.74,1.53Z"/><path class="cls-15" d="M399.58,110.11c-.46-.38-.89-1.03-1.39-1.09-1.22-.13-1.59-.72-1.86-1.84-.63-2.69-.71-2.67-2.48-3.51-1.26,.97-2.53,1.94-3.74,2.87-2.34-1.35-1.49-3.3-1.51-4.99,0-.47,.3-.93,.36-1.41,.23-1.91-.42-2.48-2.36-2.11-.24,.05-.48,.08-.73,.12,1.27-1.7,2.49-3.44,3.82-5.08,.87-1.08,1.9-2.04,2.87-3.04,.98-1.01,2.31-.91,3.07,.25,.13,.2,.22,.45,.27,.68,1.21,5.69,4.67,10.24,7.57,15.08,.08,.14,.11,.3,.23,.62-1.29,1.19-2.32,2.76-4.12,3.47Z"/><path class="cls-10" d="M170.98,175.85c1.33,.1,2.67,.2,4,.3,.38,.27,.76,.55,1.07,.77,0,1.12,0,2.17,0,3.22,0,.7,.14,1.42,.05,2.11-.22,1.7,.06,2.57,1.65,3.09,2.38,.78,3.03,2.55,3.13,4.72,.08,1.72,0,3.44,0,5.16-2.62,1.2-4.74,3.06-6.71,5.12-.2-.91-.19-1.76-1.53-2.09-3.22-.81-5.95,1.21-6.08,4.76-.83-.39-1.65-.79-2.48-1.18-.15-1.35,.43-2.2,1.52-3.07,1.83-1.46,3.4-3.24,5.07-4.89,.11-.11,.23-.28,.23-.42-.05-1.32,1.03-1.96,1.65-2.89,1.05-1.56,2.16-3.24,.95-5.2-1.8-2.92-2.92-6-2.55-9.49Z"/><path class="cls-15" d="M64.45,172.59c-.97,.57-1.94,1.15-2.92,1.7-.57,.32-1.21,.53-1.76,.89-1.67,1.07-1.85,2.63-.52,4.11,.49,.54,.98,1.08,1.45,1.59-1.36,2.06-1.91,2.3-4.05,1.86-.48-.1-.97-.17-1.46-.18-.64,0-1.29,.07-2.25,.14-.08,2.05-.15,4.05-.26,6.04-.02,.27-.27,.53-.42,.8-1.79-1.65-3.57-3.29-5.36-4.94,.3-.66,.61-1.31,.87-1.89,.29-.06,.45-.1,.61-.13,2.55-.45,3.05-1.51,1.73-3.62-.66-1.06-1.33-2.05-2.64-2.4-.87-.23-1.12-.92-.98-1.73,.26-1.53,2.77-3.59,4.41-3.63,1.11-.02,2.21,0,3.32,0-.01-.16-.02-.33-.03-.49-.89,0-1.79,.05-2.67-.01-1.03-.08-2.06-.26-3.08-.4,5.51-.4,10.88,.13,16.01,2.31Z"/><path class="cls-13" d="M154.19,202.2c-.3-.54-.6-1.08-.87-1.57,1.01-2.2,2.01-4.36,3-6.52,.39-.21,.96-.32,1.14-.65,1.09-2.08,2.16-4.18,3.11-6.34,.62-1.41,1.12-2.9,1.5-4.39,.6-2.38,2.09-3.56,4.48-3.75,.01,1.31-.07,2.64,1.06,3.65,.22,.2,.33,.55,.42,.85,.85,3.07,.38,6.15-.02,9.22-.04,.3-.19,.68-.42,.86-1.99,1.61-3.38,4.06-6.06,4.71-1.67,.41-2.04,1.41-1.89,2.88-1.81,.35-3.62,.7-5.44,1.05Z"/><path class="cls-15" d="M354.32,149.26c.77,1.71,1.84,3.28,1.64,5.34-.09,.89,.45,1.85,1.63,1.75,2.68-.23,3.51,1.58,4.16,3.63,.12,.38,.2,.77,.32,1.23,2.26-.11,3.74-1.15,4.68-3.08,.9-1.84,3.5-2.45,5.18-1.22,.64,.47,1.22,1.03,1.89,1.61,1.18-.99,1.9-2.27,3.5-2.36,.69-.04,.92-.87,.57-1.59-.21-.43-.47-.83-.66-1.15,.44-1.29,2.23-1.54,1.92-3.12,.34,.53,.67,1.06,1.01,1.59-.87,.58-.29,1.25,.04,1.69,1.65,2.15-.04,4.06-.39,6.05-.05,.26-.95,.57-1.42,.52-.8-.1-1.56-.46-2.04-.62-1.47,.73-2.77,1.24-3.91,1.98-.69,.45-1.23,1.22-1.67,1.95-.32,.54-.46,1.25-.49,1.88-.06,1.51-.9,2-2.26,1.95-2.5-1.98-5.02-3.96-7.51-5.96-.96-.77-1.87-1.58-2.81-2.38,.08-.3,.15-.6,.23-.91-.28,.04-.66-.02-.81,.14-.18,.19-.16,.57-.23,.86-.15,.11-.29,.21-.44,.32-2.88-.23-4.9-2.32-5.07-5.17-.04-.61-.33-1.2-.51-1.8,1.14-1.05,2.28-2.09,3.42-3.14Z"/><path class="cls-11" d="M132.48,162.87c-.1,1.58,1.05,2.52,1.93,3.56,1.25,1.48,1.8,3.01,1.23,4.97-.31,1.07-.25,2.24-.39,3.7-.85-.13-1.8,.01-2.29-.4-1.8-1.5-3.7-1.64-5.89-1.19-1.38,.29-2.92,.61-4.02-.94-.26-.36-1.05-.33-1.58-.51-2.48-.85-3.29-1.91-3.35-4.4,2.43-1.33,4.77-2.9,7.33-3.9,1.85-.73,4-.69,6.01-1,.34,.04,.69,.07,1.03,.11Z"/><path class="cls-11" d="M392.7,168.78c1.71,.49,3.18,.48,4.03-1.49,.19-.44,.85-.7,1.33-.98,.75-.45,1.56-.78,2.27-1.27,2.22-1.53,3.46-3.62,3.49-6.36,0-.76,.24-1.28,1.11-1.27-1.15,4.66-.25,9.01,1.91,13.21,.74,1.44,1.17,3.05,1.74,4.58,.26,.7,.53,1.42-.34,1.93-.15,.18-.3,.37-.44,.55-.15,.19-.29,.37-.44,.56-.71-1.35-1.95-1.55-3.32-1.61-2.43-.11-4.86-.29-7.29-.45-1.35-2.46-2.71-4.93-4.06-7.39Z"/><path class="cls-14" d="M377.14,136.61c0,.08,.01,.16,0,.24-.53,2.77,.55,4.51,3.28,5.26,.28,.08,.44,.58,.66,.88-1.49-.05-2.97-.1-4.46-.15-.83-.14-1.66-.28-2.49-.42-.02-1.05-1.8-.98-1.39-2.52,.46-1.76-.49-2.46-2.29-2.18-1.2,.19-2.45,.45-3.64,.31-2.4-.28-4.38,.59-6.11,2-.99,.81-1.95,1.11-3.15,.96,.08-.71-.07-1.56,.26-2.11,1.96-3.18,3.52-6.67,6.63-9.02,.78-.59,1.51-1.25,2.26-1.87-.41,2.25,1.67,3.57,1.92,5.65h8.52s0,0,0,0c0,.99,0,1.97,0,2.96Z"/><path class="cls-15" d="M251.06,169.13c2.34-.35,4.68-.72,7.03-1.05,.31-.04,.69,.02,.96,.17,2.12,1.24,4.08,2.68,5.4,4.82-.02,.84-.04,1.68-.06,2.52-2.69,.81-5.19,1.89-6.61,4.54-.45-.18-.92-.32-1.34-.56-3.46-2-7.14-3.48-10.88-4.87,.35-.03,.7-.06,1.05-.09,.92-.33,1.71-.77,1.5-1.96h0c1.69-.44,2.84-1.81,2.95-3.53Zm1.37,.38c.07,.02,.14,.07,.21,.06,.02,0,.04-.11,.07-.17-.07-.02-.14-.07-.21-.06-.02,0-.04,.11-.07,.17Z"/><path class="cls-12" d="M360.91,119.35c2.03-4.18,4.79-7.84,8.16-11.03,.61-.58,1.52-.94,2.36-1.15,1.74-.43,3.53-.69,5.46-1.04,.59,2.25-.03,4.38-.35,6.51-.04,.27-.37,.54-.61,.75-2.88,2.45-5.77,4.89-8.68,7.31-.17,.14-.45,.15-.68,.21-1.89-.52-3.78-1.04-5.67-1.56Z"/><path class="cls-13" d="M324.24,213.63c-.1-1.57,.09-2.59,2.05-3.23,1.38-.46,2.61-2.23,3.32-3.69,1.29-2.67,2.98-5.03,4.75-7.37,.92-1.21,1.22-4.91,.3-6.04-.94-1.14-1.36-2.22-.64-3.56,.59-1.11,1.18-2.26,2.68-2.47-.41-.27-.73-.48-1.05-.7,1.12,.11,2.24,.23,3.36,.34,.5,.42,.54,.75-.13,1.06-1.91,.86-2.34,2.38-2.31,4.38,.05,3.32,.57,6.73-.89,9.93-.06,.12,.04,.32,.05,.37,1.2,.95,2.34,1.86,3.48,2.76-.51,.84-1.06,1.65-1.53,2.52-.46,.86-.84,1.76-1.3,2.72-3.72-.09-6.9,1.19-9.66,3.63-1.05,.92-1.18,.82-2.44-.64Z"/><path class="cls-5" d="M349.94,176.11c-.5,.27-1.04,.47-1.48,.82-2.75,2.14-5.87,3.62-9.15,4.61-1.48,.45-3.17,.16-4.77,.21-.05-.18-.09-.35-.14-.53,1.47-.73,2.93-1.46,4.64-2.31,.44-3.48,.89-7.1,1.34-10.72,1.44,.03,2.7,.08,4-1.1,1.61-1.46,3.97-.02,4.08,2.23,.03,.65-.05,1.31,.02,1.95,.07,.61,.09,1.47,.48,1.76,1.14,.85,.96,1.97,.97,3.09Z"/><path class="cls-11" d="M87.98,182.54c0-1.15,0-2.3-.01-3.45,0,0,.01,0,.01,0,1.01-.44,2.16-.71,3-1.37,1-.78,1.77-1.88,2.58-2.88,1-1.23,1.71-1.62,2.89-.82,1.52,1.02,3.15,1.15,4.84,1.28-.38,.43-.68,1.03-1.15,1.25-1.32,.61-1.64,1.92-2.39,2.94-2.91,3.93-1.65,8.35-1.68,12.61,0,.54,.8,1.1,1.26,1.62,.51,.57,1.06,1.12,1.59,1.67-2.13-.66-4.55-.87-5.18-3.66-.07-.29-.43-.51-.53-.81-.7-2.05-2.35-3.69-2.36-6.07,0-1.45-1.1-2.11-2.87-2.31Z"/><path class="cls-15" d="M377.14,136.61c0-.99,0-1.97,0-2.96,2.63-.56,3.27-.14,5.04,2,.76,.92,2.09,1.54,3.28,1.87,1.25,.34,2.26-.73,2.52-2.38,.35-2.2,1.72-3.37,3.73-3.98-.02,.95-.03,1.9-.05,2.86-.23,.58-.59,1.14-.65,1.73-.22,2.1-.4,4.21-.47,6.33-.02,.66,.35,1.34,.54,2,0,.29,.01,.58,.02,.87-.6,.27-1.19,.53-1.89,.84-.46,1.31,.11,3.14-1.64,4.04-1.73-.63-2.24-2.12-2.47-3.66-.34-2.29-1.35-4.16-2.94-5.8-.74-.76-1.35-1.64-2-2.47-.77-.98-1.74-1.47-3.01-1.29Z"/><path class="cls-15" d="M180.89,195.22c0-1.72,.07-3.44,0-5.16-.1-2.16-.75-3.94-3.13-4.72-1.59-.52-1.87-1.39-1.65-3.09,.09-.69-.04-1.41-.05-2.11-.01-1.05,0-2.1,0-3.22-.31-.23-.69-.5-1.07-.77,2.09-.11,3.71,.67,5.2,2.21,5.65,5.8,5.7,5.76,7.04,13.7,.08,.47,.01,.97,.01,1.66-2.1,.49-4.22,1-6.34,1.5Z"/><path class="cls-14" d="M396.75,137.55c.24,.05,.48,.14,.73,.14,3.16-.04,3.52,2.56,4.29,4.67,.26,.7,.19,1.73-.16,2.39-.49,.93-.69,1.67-.41,2.75,.26,.96-.29,1.95-1.32,2.38-1.86,.77-3.34,1.83-4.43,3.63-.95,1.57-5.17,1.22-6.14-.39-.22-.36-.14-1.35,.12-1.49,2.1-1.18,2.16-3.11,2.09-5.13,0-.22,.15-.45,.33-.97,.89,0,1.86,.07,2.81-.03,.59-.06,1.14-.39,1.71-.6,.13-2.45,.25-4.89,.38-7.34Z"/><path class="cls-5" d="M268.88,176.14c.8,.77,1.66,1.48,2.38,2.32,.46,.53,.95,1.2,1.04,1.86,.39,3.07,.64,6.16,.94,9.26-3.67,.77-7.23,1.52-10.82,2.27-.86-2.59-1.73-5.19-2.6-7.79,.4-.06,.97,.03,1.18-.2,1.25-1.4,2.87-1.41,4.52-1.31,.89,.05,1.79,.35,2.65,.27,.66-.07,1.47-.42,1.86-.92,.29-.37,.26-1.53-.04-1.74-1.54-1.09-1.01-2.61-1.11-4.02Z"/><path class="cls-13" d="M349.94,176.11c-.01-1.12,.17-2.24-.97-3.09-.39-.29-.41-1.15-.48-1.76-.08-.64,0-1.3-.02-1.95-.1-2.25-2.47-3.68-4.08-2.23-1.31,1.18-2.56,1.14-4,1.1,.08-.81,.16-1.61,.24-2.42,1.9-.07,3.59-.57,5.17-1.74,.82-.6,2.06-.35,2.96-1.35,.71-.78,2.35-.35,3.07-1.61,.13-.22,.75-.21,1.14-.23,.89-.04,1.79-.04,2.68-.06-.39,.49-.79,.98-1.28,1.59,.91,.84,1.72,1.6,2.53,2.36-2.4,1.7-3.64,3.78-2.58,6.85,.31,.88-.1,1.74-.76,2.63-.71,.96-2.29,1.34-2.15,2.91-.21,.04-.43,.07-.64,.11-.28-.37-.56-.73-.84-1.1Z"/><path class="cls-11" d="M159.63,201.15c-.15-1.47,.22-2.47,1.89-2.88,2.68-.65,4.07-3.1,6.06-4.71,.23-.18,.38-.56,.42-.86,.4-3.07,.87-6.14,.02-9.22-.08-.3-.2-.66-.42-.85-1.13-1-1.05-2.33-1.06-3.65,1.48-1.05,2.96-2.09,4.44-3.14-.37,3.49,.75,6.57,2.55,9.49,1.2,1.96,.1,3.64-.95,5.2-.63,.93-1.71,1.57-1.65,2.89,0,.14-.12,.31-.23,.42-1.67,1.65-3.24,3.43-5.07,4.89-1.1,.87-1.67,1.72-1.52,3.07-1.49-.22-2.98-.45-4.47-.67Z"/><path class="cls-13" d="M103.23,191.58c.79-1.81,.94-1.95,2.39-1.16,1.13,.61,2.18,1.43,3.1,2.32,.68,.67,1.03,1.66,2.16,1.82,.25,.04,.63,.43,.64,.67,.03,1.6,1.46,2.29,2.12,3.44,.71,1.24,1.42,2.73,1.36,4.08-.07,1.38,.19,2.72,.1,4.06-.08,1.17-.56,2.3-.86,3.46,0,0-.01-.02-.01-.02-.73-.03-1.47-.06-2.2-.09-.29-.29-.58-.59-.87-.88,.26-.18,.5-.41,.79-.52,1.77-.71,2.14-1.62,.86-2.79-.83-.76-1.1-1.49-1.14-2.54-.08-1.87-.31-2.06-2.2-2.11-1.23-.03-2.46,0-3.7-.01-1.81-2.99-1.87-6.44-2.54-9.73Z"/><path class="cls-14" d="M101.3,175.3c-1.69-.13-3.32-.26-4.84-1.28-1.18-.79-1.89-.41-2.89,.82-.82,1-1.58,2.1-2.58,2.88-.84,.66-1.99,.93-3,1.37,.14-2.17-.37-4.36,.68-6.49,.55-1.12,.98-1.99,2.35-2.04,.26-.01,.51-.35,1.01-.72-.56-.74-1.06-1.41-1.57-2.09,5.34-.93,9.77,1.72,14.61,3.43-1.05,1.83-2.25,3.11-3.76,4.11Z"/><path class="cls-14" d="M339.18,205.42c-1.14-.9-2.27-1.8-3.48-2.76,0-.05-.1-.24-.05-.37,1.46-3.2,.94-6.61,.89-9.93-.03-2.01,.41-3.53,2.31-4.38,.67-.3,.63-.64,.13-1.06,3.64-1.7,7.27-3.41,10.91-5.11-.2,.51-.4,1.02-.61,1.52-.27,.63-.71,1.24-.8,1.89-.26,1.83-.9,2.77-2.69,3.25-1.01,.27-2.08,.39-3.12,.48-.89,.08-1.78,.02-2.94,.02-.07,.96-.17,1.74-.17,2.52-.02,2.37,.1,4.75-.04,7.12-.1,1.77,.51,2.81,2.24,3.22,.29,.07,.53,.34,.79,.52-1.13,1.03-2.26,2.05-3.38,3.08Z"/><path class="cls-10" d="M56.18,198.75c1.33,.65,2.04,1.77,2.43,3.16,.49,1.7,.87,3.46,1.6,5.05,.9,1.97,2.12,3.79,4.14,4.89-2.99,1.87-5.5,4.2-7.13,7.38-.1,.19-.36,.28-.55,.42-.95-.11-2.19,0-2.23-1.34-.03-1.17,.07-2.46,.55-3.49,.54-1.15,.82-2.23,.88-3.48,.1-2.13-.5-4.32,.83-6.37,.63-.97,0-1.74-1.27-2.16,.25-1.35,.49-2.71,.74-4.06Z"/><path class="cls-5" d="M386.54,189.86c.02-2.2,.04-4.4,.08-6.59,0-.14,.14-.28,.26-.48,1.47-.62,2.82-.02,4.13,.61,.88,.42,1.72,.93,2.51,1.49,1.51,1.08,3.1,1.31,4.82,.62,0,0,.05,.04,.05,.04,.17,.15,.34,.3,.52,.44,.14,.1,.29,.21,.43,.31-1.51,.68-.75,2.05-.95,3.12-1.34,1.74-2.67,3.48-4.11,5.36-2.2-2.56-4.62-4.32-7.74-4.93Z"/><path class="cls-14" d="M355.66,160.77c-.9,.02-1.79,.02-2.68,.06-.4,.02-1.02,0-1.14,.23-.72,1.26-2.37,.84-3.07,1.61-.9,.99-2.15,.75-2.96,1.35-1.59,1.17-3.28,1.67-5.17,1.74,.25-1.08,.21-2.35,.79-3.21,2.62-3.88,5.73-7.33,9.49-10.16,.18,.6,.47,1.19,.51,1.8,.17,2.85,2.19,4.94,5.07,5.17-.27,.47-.55,.94-.82,1.4Z"/><path class="cls-14" d="M48.45,170.28c1.03,.14,2.05,.32,3.08,.4,.89,.07,1.78,.01,2.67,.01,.01,.16,.02,.33,.03,.49-1.11,0-2.21-.02-3.32,0-1.64,.03-4.15,2.09-4.41,3.63-.14,.81,.11,1.5,.98,1.73,1.31,.35,1.98,1.35,2.64,2.4,1.32,2.11,.82,3.17-1.73,3.62-.16,.03-.32,.07-.61,.13-.27,.58-.57,1.24-.87,1.89-2.34-2.02-4.68-4.04-7.22-6.23,2.1-2.78,3.44-6.02,6.72-7.6,.61-.3,1.35-.33,2.04-.48Z"/><path class="cls-10" d="M350.78,177.21c.21-.04,.43-.07,.64-.11,1.52,.26,2.62-.3,3.57-1.52,1.29-1.65,2.67-3.25,4.13-4.75,.52-.54,1.38-.78,2.11-1.1,.5-.22,1.04-.33,1.56-.5,.51,.5,1.16,.92,1.51,1.51,1.05,1.74,1.98,3.55,3.13,5.66-3.25,1.76-6.01,4.15-9.55,5.25-.11-.72-.23-1.44-.37-2.35,.47-.36,1.06-.78,1.6-1.25,1.54-1.34,1.55-1.98,.03-3.33-.29-.26-.67-.4-1.24-.72-.76,.98-1.58,1.86-2.17,2.86-.93,1.6-2.38,1.82-3.99,1.8-.32-.48-.65-.97-.97-1.45Z"/><path class="cls-14" d="M244.54,156.27c.15,.07,.29,.2,.44,.22,2.38,.24,3.84,1.25,3.13,3.95,2.12,1.08,4.87,.69,5.92,3.26-3.33,.62-6.76,.87-9.79,2.62-1.86,.13-3.72,.25-5.58,.38,1.96-3.48,3.92-6.95,5.87-10.43Z"/><path class="cls-11" d="M55.44,202.81c1.27,.42,1.9,1.2,1.27,2.16-1.33,2.05-.74,4.24-.83,6.37-.06,1.25-.34,2.34-.88,3.48-.48,1.03-.58,2.32-.55,3.49,.04,1.35,1.27,1.23,2.23,1.34-.18,1.14-.45,2.22-1.63,2.8-.6-.41-1.16-.9-1.81-1.23-1.89-.99-2.52-2.6-3.11-4.6-.85-2.87,.06-5.1,1.42-7.36,.8-1.33,1.81-2.52,2.63-3.84,.51-.81,.84-1.74,1.25-2.61Z"/><path class="cls-13" d="M419.76,162.33c-.35,.63-.63,1.32-1.06,1.88-1.94,2.5-3.93,4.96-6.11,7.7-1.19-2.85-2.54-5.3-3.2-7.91-.63-2.45-.2-5.03,1.3-7.25,.83,1.64,1.66,3.28,2.49,4.92,2.52-.41,2.52-.4,5.38,.52,.38,.12,.8,.1,1.21,.14Z"/><path class="cls-13" d="M240.24,187.52c-.88,.43-1.76,.86-2.88,1.4-1.21-4.25-2.86-8.15-6.92-10.74,.8-1.32,1.49-2.47,2.34-3.87,2.98,1.63,5.74,3.15,8.5,4.67-.19,.26-.34,.55-.57,.77-1.9,1.79-2.14,5.7-.47,7.78Z"/><path class="cls-12" d="M401.47,116.86c2.25,.25,2.3,.27,2.34,2.2,.04,1.55,.07,3.1-.02,4.64-.05,.87-.21,1.8-.58,2.58-.79,1.67-1.72,3.28-2.67,4.87-.77,1.28-1.73,1.23-2.77,.02-.19-.22-.53-.31-.8-.46,0-.49-.14-1.01,0-1.46,1.23-4.23,2.08-8.59,4.51-12.38Z"/><path class="cls-5" d="M238.67,166.7c1.86-.13,3.72-.25,5.58-.38,.65,1.09,1.23,2.23,1.98,3.25,.24,.32,.91,.33,1.38,.48,.17,.87,.35,1.74,.52,2.6,0,0,0,0,0,0-1.57-.16-1.51,.91-1.5,1.96-.35,.03-.7,.06-1.05,.09-3.47-.71-6.58-2.23-9.75-4.24,1.01-1.34,1.93-2.56,2.84-3.77Z"/><path class="cls-14" d="M50.01,202.43c-2.06,.62-3.79-.11-5.39-1.32-1.2-.91-1.57-1.93-.83-3.17,.83-1.39,1.12-2.68,.81-4.34-.2-1.07,.53-2.32,.84-3.48,1.36,1.28,2.95,2.39,4.04,3.88,1.77,2.42,2.32,5.18,1.03,8.08-.08-.43-.16-.85-.25-1.28-.09,0-.18,.02-.27,.02v1.58l.02,.02Z"/><path class="cls-5" d="M369.72,200.82c-.28-.14-.74-.22-.82-.43-.44-1.22-1.39-1.45-2.52-1.58-.69-.08-1.34-.42-2.04-.66,.16-2.37,1.69-3.64,3.25-4.55,1.49-.87,3.31-1.21,5.02-1.64,1.95-.49,4.06-.33,5.8-1.62,.55-.41,1.21-.57,1.71,.18-2.02,1.37-4.3,2.48-6,4.17-1.76,1.75-2.96,4.07-4.41,6.13Z"/><path class="cls-16" d="M4.73,230.46c.04,.57,.13,1.14,.13,1.72,0,18.35,0,36.71,0,55.06,0,.33-.04,.66-.06,.98-.28-.26-.69-.47-.8-.79-.14-.45-.07-.97-.07-1.47,0-17.73,0-35.46,.02-53.19,0-.81-.49-1.88,.77-2.31Z"/><path class="cls-14" d="M362.79,169.24c-.52,.16-1.06,.28-1.56,.5-.73,.32-1.59,.56-2.11,1.1-1.46,1.5-2.84,3.1-4.13,4.75-.95,1.22-2.05,1.78-3.57,1.52-.14-1.57,1.44-1.95,2.15-2.91,.66-.89,1.07-1.75,.76-2.63-1.06-3.06,.18-5.14,2.58-6.85,1.96,1.51,3.92,3.01,5.88,4.52Z"/><path class="cls-13" d="M357.54,141.01c1.19,.15,2.15-.15,3.15-.96,1.73-1.41,3.71-2.28,6.11-2,1.19,.14,2.43-.13,3.64-.31,1.8-.28,2.75,.42,2.29,2.18-.4,1.54,1.37,1.46,1.39,2.52-.82,.05-1.65,.1-2.47,.15-.98-.04-1.96-.07-2.94-.11-.54-.14-1.07-.39-1.61-.39-3.12-.03-6.24,0-9.36,0-.07-.36-.14-.71-.21-1.07Z"/><path class="cls-12" d="M249.62,187.41c-2.32-.16-4.63-.33-6.95-.49-.28-1.73-.56-3.47-.88-5.45,1.77-.33,3.4-.64,5.02-.95,1.44,.61,2.88,1.23,4.32,1.84,.43,1.96-.73,3.45-1.52,5.05Z"/><path class="cls-10" d="M422.73,158.98c-1.28-.1-2.57-.2-4.11-.32,.29-.62,.43-1.04,.66-1.41,.54-.87,.48-1.69-.06-2.51-.32-.48-.57-1.01-.96-1.42-2.24-2.38-1.45-5-.85-7.82,1.16,0,2.13,0,3.1,0,.53,2.7,1.02,5.42,1.6,8.11,.27,1.26,.7,2.48,1.06,3.72-.16,.54-.32,1.07-.47,1.61l.05,.05Z"/><path class="cls-14" d="M369.17,169.3c1.39-.97,2.61-1.94,3.02-3.83,.29-1.36,1.58-2.22,3.35-2.65,.33,.63,1.12,1.46,.94,1.91-.71,1.76,.02,2.99,1.33,4.27-2.44,1.38-3.63,3.91-6.01,5.12-.88-1.61-1.76-3.22-2.63-4.83Z"/><path class="cls-14" d="M87.98,182.54c1.77,.19,2.86,.86,2.87,2.31,0,2.39,1.65,4.02,2.36,6.07,.1,.3,.46,.52,.53,.81,.63,2.79,3.06,3.01,5.18,3.66,.07,.28,.13,.57,.2,.85-.92,.53-.81,.89,.18,1.11,.14,1.23,.28,2.46,.44,3.88-.48-.03-.93-.06-1.38-.09-.46-2.33-2.42-3.14-4.2-4.12-.9-.5-1.83-.96-2.92-1.54,1.43-1.87,1.12-3.26,.14-5.19-.94-1.87-1.92-3.65-3.09-5.39-.4-.59-.23-1.57-.31-2.37Z"/><path class="cls-10" d="M377.13,133.66h-8.52c-.24-2.08-2.32-3.4-1.92-5.65,.12-.13,.24-.26,.35-.4,.61,.23,1.32,.32,1.8,.71,1.32,1.07,2.56,.98,4.07,.34,1.98-.84,4.16,.7,4.22,2.8,.02,.73,0,1.46,0,2.2Z"/><path class="cls-10" d="M360.91,119.35c1.89,.52,3.78,1.04,5.67,1.56-2.33,2.39-4.65,4.79-6.98,7.17-.44,.45-.94,.84-1.51,1.35-.96-4.05,.41-7.21,2.82-10.08Z"/><path class="cls-11" d="M419.76,162.33c-.4-.04-.83-.02-1.21-.14-2.86-.92-2.86-.93-5.38-.52-.83-1.64-1.66-3.28-2.49-4.92,.42-1.82,1.11-3.51,2.51-4.82,.08,.67,.16,1.33,.26,2.21,1.4,.73,2.39,2,3.03,3.7,.58,1.54,1.66,2.82,3.53,3.09,.27,.04,.49,.38,.73,.59-.33,.28-.66,.55-.99,.83Z"/><path class="cls-5" d="M396.76,176.17c2.43,.15,4.86,.34,7.29,.45,1.37,.06,2.61,.26,3.32,1.61-1.22,1.61-2.45,3.23-3.83,5.05-2.71-2.11-5.74-3.61-6.78-7.1Z"/><path class="cls-15" d="M166.58,203.01c.13-3.56,2.85-5.58,6.08-4.76,1.34,.34,1.32,1.18,1.53,2.09-1.07,1.92-2.14,3.84-3.31,5.94-1.47-1.12-2.88-2.2-4.29-3.27Z"/><path class="cls-10" d="M249.62,187.41c.79-1.6,1.94-3.08,1.52-5.05,3.87,.85,4.63,4.17,5.68,7.22,.37,1.07,.5,2.22,.73,3.33,.44-.05,1.69-.27,2.85-.35,.1,0,.13,.22,.17,.26-.44,.19-2.94,1.3-3.48,1.54-1.9-3.02-4.26-5.45-7.47-6.96Z"/><path class="cls-11" d="M257.78,180.14c1.42-2.66,3.92-3.74,6.61-4.54,.72,.53,1.5,.99,2.13,1.6,.99,.98,2.25,1.92,1.5,3.86-1.31,0-2.64,.18-3.89-.05-1.27-.23-2.48-.85-3.76-1.33-.34,1.21-.65,2.35-.97,3.5-.54-1.02-1.08-2.03-1.62-3.04Z"/><path class="cls-13" d="M259.4,183.18c.32-1.14,.63-2.28,.97-3.5,1.29,.47,2.49,1.1,3.76,1.33,1.25,.23,2.58,.05,3.89,.05,.75-1.94-.51-2.88-1.5-3.86-.63-.62-1.41-1.08-2.13-1.6,.02-.84,.04-1.68,.06-2.52,1.48,1.02,2.96,2.04,4.43,3.07,.09,1.4-.43,2.93,1.11,4.02,.3,.22,.33,1.37,.04,1.74-.39,.5-1.2,.85-1.86,.92-.87,.09-1.76-.21-2.65-.27-1.65-.1-3.27-.09-4.52,1.31-.21,.23-.78,.14-1.18,.2-.14-.29-.28-.59-.42-.88Z"/><path class="cls-12" d="M357.36,189.96c.3,.72,.49,1.51,.93,2.13,.67,.94,.65,1.71-.01,2.65-.44,.62-.65,1.41-.93,2.14-.83,2.18-1.45,4.5-3.98,5.44-.24-.06-.49-.08-.7-.19-.21-.11-.37-.3-.61-.51,1.11-4.19,2.39-8.29,5.3-11.66Z"/><path class="cls-11" d="M105.77,201.31c1.23,0,2.46-.02,3.7,.01,1.89,.05,2.13,.23,2.2,2.11,.04,1.04,.31,1.78,1.14,2.54,1.28,1.17,.91,2.08-.86,2.79-.29,.11-.53,.34-.79,.52-1.22-1.51-2.51-2.97-3.62-4.56-.73-1.04-1.19-2.27-1.77-3.41Z"/><path class="cls-10" d="M246.81,180.53c-1.63,.31-3.26,.61-5.02,.95,.32,1.98,.6,3.71,.88,5.45-.81,.2-1.62,.4-2.43,.6-1.67-2.07-1.43-5.98,.47-7.78,.23-.22,.38-.51,.57-.77,.47,.05,.95,.11,1.42,.16,.15,0,.3,.01,.45,.02,1.22,.45,2.44,.91,3.66,1.36Z"/><path class="cls-13" d="M44.3,189.32c-.49,.79-1.02,1.57-1.46,2.39-.36,.68-.77,1.49-1.59,1.13-1.63-.71-2.79,.05-3.99,.92-.18,.13-.47,.1-.71,.14-.17-1.69,1.14-2.72,2.11-3.59,1.08-.97,1.99-1.77,1.99-3.31,0-.17,.47-.34,.72-.51,.98,.94,1.95,1.89,2.93,2.83Z"/><path class="cls-11" d="M248.11,172.66c-.17-.87-.35-1.74-.52-2.6,1.16-.31,2.31-.62,3.47-.92-.11,1.72-1.25,3.09-2.95,3.53Z"/><path class="cls-10" d="M391.07,144.08c-.19-.67-.56-1.34-.54-2,.07-2.11,.25-4.22,.47-6.33,.06-.59,.43-1.16,.65-1.73,.01,2.85,.05,5.71,0,8.56,0,.5-.38,1-.59,1.5Z"/><path class="cls-14" d="M363.29,200.82h2.79c.08,.96,.14,1.67,.19,2.38-.97,.13-1.94,.26-2.92,.39,.3-.93-.91-1.83-.06-2.77Z"/><path class="cls-14" d="M357.75,142.08c3.12,0,6.24-.03,9.36,0,.54,0,1.07,.25,1.61,.39-3.36-.02-6.71-.04-10.07-.08-.3,0-.6-.2-.9-.31Z"/><path class="cls-15" d="M397.44,113.19c-.01-.48-.06-.95-.03-1.42,.12-1.53,.23-1.61,2.13-1.64-.7,1.02-1.4,2.05-2.1,3.07Z"/><path class="cls-13" d="M398.38,189.43c.21-1.08-.56-2.45,.95-3.12,.6,.23,1.08,.57,.6,1.25-.46,.66-1.03,1.25-1.56,1.87Z"/><path class="cls-14" d="M242.49,462.1c.22,.15,.44,.29,.66,.44-.52,.7-1.05,1.4-1.57,2.11l-.68-.57c.53-.66,1.06-1.32,1.59-1.97Z"/><path class="cls-7" d="M141.78,229.14c-1.76,.02-3.51,.04-5.27,.06,1.76-.02,3.51-.04,5.27-.06Z"/><path class="cls-12" d="M371.65,142.58c.82-.05,1.65-.1,2.47-.15,.83,.14,1.66,.28,2.49,.42-1.65-.09-3.31-.18-4.96-.27Z"/><path class="cls-10" d="M80.44,211.74c.72-.17,1.45-.33,2.17-.5-.06,.46-.11,.92-.2,1.63-.78-.45-1.38-.79-1.97-1.13Z"/><path class="cls-14" d="M383.56,158.84c-1.05-.32-1.83-.76-.95-2,.32,.67,.63,1.33,.95,2Z"/><path class="cls-15" d="M132.48,162.87c-.34-.04-.69-.07-1.03-.11,1.16-.15,2.32-.3,3.47-.45,0,.15-.01,.3-.02,.46,0,0,.02,0,.02,0-.64,.03-1.28,.06-1.93,.08-.17,0-.35,.01-.52,.02Z"/><path class="cls-14" d="M356.92,159.05c.07-.3,.05-.67,.23-.86,.15-.16,.53-.1,.81-.14-.08,.3-.15,.6-.23,.91-.27,.03-.54,.06-.81,.09Z"/><path class="cls-5" d="M112.03,210.16c.73,.03,1.47,.06,2.2,.09q-1.23,1.24-2.2-.09Z"/><path class="cls-7" d="M133.46,229.43c.49,.02,.98,.04,1.47,.06"/><path class="cls-14" d="M422.69,158.93c.16-.54,.32-1.07,.47-1.61,.78,.81,.12,1.2-.47,1.61Z"/><path class="cls-13" d="M139.34,161.94c-.72,.09-1.43,.18-2.15,.27,.71-.09,1.43-.18,2.15-.27Z"/><path class="cls-11" d="M99.3,197.35c-.99-.22-1.1-.58-.18-1.11,.06,.37,.12,.74,.18,1.11Z"/><path class="cls-11" d="M50,202.41v-1.58c.09,0,.18-.02,.27-.02,.08,.42,.16,.85,.25,1.28-.17,.11-.34,.22-.52,.33Z"/><path class="cls-9" d="M263.59,231.87c-.54-.11-1.09-.22-1.63-.33,.54,.11,1.09,.22,1.63,.33Z"/><path class="cls-7" d="M144.86,229.93c-.34-.13-.67-.25-1.01-.38,.34,.13,.67,.25,1.01,.38Z"/><path class="cls-5" d="M369.24,202.79c-.2-.07-.39-.14-.59-.21,.22-.1,.45-.2,.67-.3-.03,.17-.06,.34-.09,.51Z"/><path class="cls-5" d="M407.8,177.67c.15-.18,.3-.37,.44-.55-.15,.18-.3,.37-.44,.55Z"/><path class="cls-13" d="M398.9,186c-.17-.15-.34-.3-.52-.44,.17,.15,.34,.3,.52,.44Z"/><path class="cls-8" d="M354.4,244.28c.14-.16,.28-.32,.42-.48-.14,.16-.28,.32-.42,.48Z"/><path class="cls-9" d="M397.88,336.62c-.18,.16-.36,.31-.54,.47,.18-.16,.36-.31,.54-.47Z"/><path class="cls-9" d="M398.38,336.18c-.16,.14-.33,.29-.49,.43,.16-.14,.33-.29,.49-.43Z"/><path class="cls-13" d="M243.15,179.16c-.15,0-.3-.01-.45-.02,.15-.08,.3-.07,.45,.02Z"/><path class="cls-18" d="M428.02,240.15h22.14c-31.83,34.25-63.27,68.1-94.94,102.18,2.47,.42,4.73,.16,6.96,.21,2.31,.05,4.61,.01,6.92,.01,2.27,0,4.54,0,6.8,0,.06,.15,.12,.3,.18,.46-36.08,31.93-72.17,63.85-108.42,95.93-.99-.94-1.92-1.82-2.89-2.74,23.69-31.32,47.29-62.53,71.17-94.11h-22.78c22.56-29.57,44.83-58.77,67.43-88.4-3.82-.17-7.22-.07-10.6-.09-3.46-.02-6.92,0-10.36,0-.06-.1-.1-.17-.13-.25-.03-.07-.08-.18-.05-.22,29.03-37.04,58.06-74.07,87.34-111.41,11.68,15.35,23.2,30.5,34.85,45.82-18,17.44-35.88,34.77-53.77,52.1,.05,.17,.1,.35,.16,.52Zm-145.25,179.01c-.66,.76-1.31,1.52-1.97,2.28,.13,.11,.26,.23,.39,.34,.66-.68,1.32-1.35,1.98-2.03,8.22-7.23,16.46-14.44,24.66-21.68,18.57-16.41,37.11-32.83,55.67-49.25,.7-.62,1.34-1.29,2.31-2.23-6.82-.11-13.16,.08-19.9-.12,16.09-17.31,31.84-34.23,47.56-51.17,15.69-16.9,31.41-33.77,47.08-50.7-.09-.17-.18-.35-.27-.52h-22.03c-.08-.17-.15-.34-.23-.51,9.68-9.35,19.37-18.68,29.04-28.04,9.73-9.43,19.42-18.89,29.2-28.4-9.89-13-19.63-25.81-29.4-38.66-5.4,6.01-78.24,99.13-79.1,101.19,1.79,0,3.49,0,5.19,0s3.46,0,5.19,0c1.73,0,3.46-.03,5.19,0,1.65,.04,3.34-.22,5.19,.31-22.44,29.41-44.71,58.61-67.24,88.15,2.28,0,4.08,0,5.88,0,1.81,0,3.62,0,5.44,0,1.89,0,3.79-.05,5.68,.02,1.74,.06,3.52-.27,5.43,.25-.5,.73-.85,1.28-1.24,1.79-5.96,7.88-11.92,15.74-17.88,23.62-13.94,18.45-27.87,36.91-41.81,55.36Z"/><path class="cls-14" d="M383.53,188.54c-2.96,1.52-5.38-.5-8.15-.1v-2.41c1.98-.6,3.81-1.16,5.64-1.71,1.16-.35,2.35,.36,2.49,1.58,.1,.87,.02,1.76,.02,2.64Z"/><path class="cls-5" d="M133,162.85c.64-.03,1.28-.06,1.93-.08-.61,.71-1.26,.72-1.93,.08Z"/><path class="cls-11" d="M246.62,174.62c-.02-1.05-.07-2.12,1.5-1.96,.21,1.19-.58,1.63-1.5,1.96Z"/><path class="cls-11" d="M252.43,169.51c.02-.06,.04-.17,.07-.17,.07,0,.14,.04,.21,.06-.02,.06-.04,.17-.07,.17-.07,0-.14-.04-.21-.06Z"/><path class="cls-3" d="M282.76,419.17c13.93-18.45,27.87-36.91,41.81-55.36,5.95-7.88,11.92-15.75,17.88-23.62,.39-.52,.74-1.06,1.24-1.79-1.91-.53-3.69-.19-5.43-.25-1.89-.07-3.79-.02-5.68-.02-1.81,0-3.62,0-5.44,0-1.8,0-3.59,0-5.88,0,22.53-29.53,44.8-58.74,67.24-88.15-1.85-.53-3.53-.26-5.19-.31-1.73-.04-3.46,0-5.19,0-1.73,0-3.46,0-5.19,0s-3.4,0-5.19,0c.86-2.07,73.7-95.19,79.1-101.19,9.77,12.85,19.52,25.66,29.4,38.66-9.78,9.51-19.47,18.97-29.2,28.4-9.66,9.36-19.36,18.7-29.04,28.04,.08,.17,.15,.34,.23,.51h22.03c.09,.17,.18,.35,.27,.52-15.66,16.93-31.39,33.79-47.08,50.7-15.72,16.94-31.47,33.86-47.56,51.17,6.74,.2,13.08,0,19.9,.12-.97,.93-1.61,1.61-2.31,2.23-18.55,16.42-37.1,32.85-55.67,49.25-8.2,7.25-16.44,14.46-24.66,21.68-.13-.2-.27-.39-.41-.59Z"/><g><path d="M208.46,285.89c-.15,2.86-.13,5.74-.47,8.58-.94,7.99-7.36,14.09-15.41,14.36-7.56,.25-15.14,.04-22.71,.1-3.2,.03-4.53-1.43-4.52-4.58,.05-18.43,.04-36.86,0-55.29,0-2.99,1.29-4.37,4.34-4.3,6.05,.13,12.11,.05,18.16,.26,9.97,.35,15.41,8.56,11.8,17.75-1.09,2.78-2.4,5.47-3.45,7.84,3.74,3.91,7.31,7.65,11.05,11.57,.12-1.06,.44-2.53,.41-3.99-.33-16.42,10.12-28.87,23.76-32.43,16.22-4.24,31.58,.36,39.72,17.2,9.47,19.59-.88,39.6-18.82,44.82-18.26,5.31-35.68-.23-43.89-21.89Zm32.5,13.62c13.43,1.05,23.65-10.86,23.56-22.13-.1-12.61-10.19-23.09-22.94-23.08-13.13,0-23.45,9.33-23.62,22.86-.16,12.43,10.35,23.17,23,22.36Zm-56.83-.74s0-.05,0-.07c1.76,0,3.54,.15,5.28-.03,5.31-.55,9.44-5.39,8.18-9.67-1.09-3.71-3.07-6.96-6.9-8.4-1.15-.43-3.19-.37-3.97,.37-3.36,3.18-6.68,6.5-9.43,10.19-1.07,1.44-1.1,4.14-.59,6,.24,.87,2.83,1.21,4.41,1.58,.95,.22,2,.04,3.01,.04Zm-7.75-25.08c.33,.15,.66,.3,1,.46,3.76-4.24,7.58-8.42,11.23-12.75,.64-.76,1.15-2.59,.72-3.09-1.14-1.35-2.85-3.17-4.27-3.12-2.9,.1-7.59-2.4-8.43,1.97-1.03,5.33-.24,11.01-.24,16.54Z"/><path d="M16.14,276.67c0-9.16-.02-18.33,0-27.49,0-4.16,.36-4.5,4.43-4.5,8.28,0,16.56-.1,24.83,.07,4.3,.09,8.31,1.32,10.99,5.03,3.09,4.28,3.09,9.37-.75,14.15-3.58,4.45-7.82,8.38-11.82,12.49-3.06,3.15-3.12,3.5-.89,7.2,4.36,7.22,8.7,14.46,13.04,21.69,1.57,2.61,1.09,3.57-1.91,3.77-.83,.06-1.69-.09-2.51,.05-4.18,.69-6.54-1.24-8.3-4.9-2.38-4.97-5.28-9.69-7.85-14.57-1.14-2.17-2.15-2.2-4.1-.73-5.07,3.83-6.92,8.66-6.3,14.94,.48,4.85-2.39,6.74-7.01,4.95-.92-.36-1.75-2.23-1.77-3.41-.14-9.58-.08-19.16-.08-28.74Zm9.01,3.08c1.29-.71,2.09-.96,2.62-1.48,5.9-5.77,11.77-11.56,17.6-17.39,.72-.72,1.34-1.63,1.74-2.56,1.03-2.36,.12-4.03-2.45-4.11-5.55-.16-11.1-.09-16.65-.06-2.11,0-2.89,1.22-2.88,3.24,.05,5.52,.01,11.03,.01,16.55,0,1.73,0,3.45,0,5.8Z"/><path d="M301.97,292c-1.55,4.6-3.14,9.19-4.64,13.81-.73,2.24-2.16,3.27-4.52,3.11-.75-.05-1.51,0-2.27,0-8.81,.03-8.8-.21-10.17-9.1-1.96-12.7-4.3-25.34-6.47-38.01-.78-4.56-1.62-9.11-2.22-13.7-.11-.87,.53-2.3,1.26-2.75,4.26-2.6,8.94-.13,9.73,4.7,2.24,13.71,4.63,27.38,6.98,41.07,.1,.58,.4,1.14,.91,2.58,1.85-5.44,3.44-10.08,5.01-14.73,.84-2.49,1.71-4.96,2.45-7.48,.76-2.58,2.49-3.65,5.07-3.55,2.52,.1,4.15,1.16,4.96,3.76,2.02,6.56,4.26,13.05,6.44,19.57,.18,.55,.57,1.02,1.13,1.99,.89-4.83,1.72-9.09,2.44-13.37,1.68-9.99,3.32-19.99,4.93-29.99,.74-4.6,3.85-6.63,8.3-4.93,.98,.38,1.98,2.23,1.96,3.38-.05,2.99-.58,5.98-1.07,8.94-2.12,12.83-4.27,25.66-6.46,38.48-.59,3.45-1.29,6.88-2.02,10.31-.15,.69-.61,1.85-1,1.88-3.96,.34-8.01,.97-11.89,.46-1.41-.19-2.77-3.1-3.55-5.02-1.55-3.83-2.68-7.82-3.99-11.74-.44,.11-.89,.22-1.33,.32Z"/><path d="M152.32,282.92c0-4.98,0-9.96,0-14.94,0-6.02-.1-12.03,.07-18.05,.04-1.6,.59-4.34,1.42-4.54,2.31-.58,4.92-.28,7.34,.08,.56,.08,1.22,1.84,1.22,2.82,.07,19.05,.05,38.1,.07,57.15,0,2.38-1.21,3.26-3.48,3.47-6.96,.63-7.72,.29-11.01-5.86-5.26-9.83-10.47-19.68-15.75-29.49-.63-1.17-1.57-2.19-3.08-4.25-.11,2.37-.22,3.66-.22,4.94,0,10.03,.04,20.05,0,30.08-.01,4.13-.68,4.48-5.4,4.64-3.51,.12-4.99-1.06-4.96-4.74,.12-17.92,.03-35.85,.09-53.77,0-2.21-.82-4.99,2.74-5.67,4.69-.9,7.96,.14,9.6,3.09,5.88,10.63,11.77,21.27,17.72,31.86,.74,1.31,1.9,2.39,2.86,3.57,.26-.14,.53-.27,.79-.41Z"/><path d="M64.95,288.93c1.19,5.02,2.22,9.42,3.27,13.82,.51,2.14,2.63,4.65-1.02,5.94-3.98,1.4-7.15,.08-8.03-3.48-1.38-5.58-2.52-11.23-3.55-16.88-.39-2.11-.71-3.77-3.21-4.42-3.32-.87-3.21-3.91-3.22-6.47,0-2.43,1.95-2.86,4.03-2.93,3.07-.1,3.13-2.73,3.96-4.75,2.08-5.07,3.84-10.32,6.47-15.1,3.67-6.65,9.13-10.88,17.44-10.16,7.98,.7,12.3,6.01,15.42,12.33,5.4,10.96,6.49,22.75,5.52,34.79-.35,4.37-.75,8.74-.97,13.12-.14,2.85-1.66,3.92-4.31,4.16-4.23,.37-7.5-.28-10.34-4.29-4.69-6.62-11.31-11.35-18.58-15.05-.51-.26-1.16-.26-2.87-.62Zm26.03,6.4c.42-1.19,.89-1.95,.93-2.73,.5-11.07,.17-22-4.67-32.36-3.33-7.12-10.46-8.58-14.6-2.02-3.32,5.27-5.11,11.57-7.15,17.56-.99,2.9,2.13,3.5,3.93,4.68,5.75,3.76,11.53,7.49,17.25,11.3,1.42,.95,2.65,2.19,4.31,3.57Z"/><path d="M104.91,276.78c0-9.14-.04-18.27,.02-27.41,.03-4.01,.85-4.51,5.43-4.7,3.47-.15,5.07,1.04,5.05,4.71-.09,18.4-.11,36.8,.02,55.2,.03,4.02-2.12,4.41-5.27,4.41-3.17,0-5.37-.43-5.3-4.41,.16-9.26,.05-18.52,.05-27.79Z"/><path d="M171.73,419.19c.42,2.31,.82,4.63,1.27,6.94,.13,.65,.59,1.26,.61,1.9,.03,1.43,1.75,3.41-1.05,4.07-3.05,.72-4.67-.2-5.25-2.93-.76-3.59-1.46-7.18-2.15-10.78-.28-1.46-.68-2.6-2.41-3.1-2.17-.63-1.56-2.67-1.6-4.27-.04-1.62,1.11-1.74,2.39-1.86,.67-.06,1.68-.48,1.86-.97,.79-2.24,1.34-4.56,1.92-6.63-4.5,4.57-9.03,9.16-13.56,13.75-.71,.71-1.39,1.47-2.17,2.08-3.88,3.02-6.09,6.68-5.24,11.82,.43,2.6-1.48,2.99-3.53,2.99-2.99,0-3.78-.54-3.79-3.01-.03-12.19,.02-24.38-.04-36.58-.01-2.25,.96-3.23,3.14-3.2,5.71,.06,11.43,0,17.14,.2,4.99,.18,7.94,3.11,8.52,8.06,.05,.46,.24,.91,.35,1.3,1.82-2.37,3.37-4.85,5.38-6.89,4.07-4.14,11.17-3.99,15.43,.02,3.17,3,4.81,6.86,5.87,10.9,2.33,8.86,2.29,17.82,.62,26.81-.27,1.47-.95,2.16-2.46,2.31-3,.3-5.39-.1-7.34-2.95-3.22-4.69-7.96-7.74-12.99-10.3-.3,.11-.6,.22-.9,.33Zm18.09-2.63c-.14-6.36-1.05-12.61-4.23-18.26-2.09-3.71-5.9-3.96-8.68-.74-3.18,3.68-4.42,8.15-5.01,12.83-.07,.59,.6,1.59,1.19,1.88,5.28,2.61,10.26,5.59,14.44,9.82,1.18,1.19,2.18,.65,2.26-1.03,.08-1.49,.02-3,.02-4.5Zm-43.2-4.89c4.24-3.97,8.29-7.68,12.22-11.51,.59-.58,1.04-1.95,.75-2.58-.32-.67-1.57-1.22-2.45-1.28-2.76-.16-5.54-.01-8.3-.1-1.74-.05-2.45,.72-2.45,2.37,.01,3.5-.02,7,0,10.51,0,.87,.15,1.75,.23,2.59Z"/><path d="M148.61,364.38c-1.55,4.6-3.13,9.18-4.63,13.79-.72,2.22-2.13,3.3-4.49,3.14-.88-.06-1.76,0-2.65,0-8.3,.01-8.39-.22-9.71-8.32-2.82-17.24-5.79-34.46-8.77-51.68-.45-2.58,.45-3.73,2.96-4.11,5.57-.86,7.2,.52,8.08,5.96,2.2,13.58,4.63,27.13,6.98,40.68,.08,.47,.36,.9,.88,2.18,1.84-5.45,3.45-10.19,5.05-14.94,.84-2.49,1.27-5.22,2.62-7.39,.94-1.51,3.01-2.85,4.78-3.21,2.39-.48,4.17,.94,4.97,3.55,2.03,6.56,4.26,13.05,6.43,19.57,.18,.55,.57,1.04,1.16,2.09,.89-4.83,1.72-9.07,2.44-13.32,1.68-9.99,3.32-19.98,4.93-29.98,.75-4.66,3.74-6.66,8.25-5,.96,.35,2.06,2.28,1.93,3.34-.93,7.7-2.06,15.37-3.3,23.03-1.2,7.4-2.61,14.78-3.92,22.16-.72,4.06-1.38,8.13-2.16,12.18-.16,.82-.63,2.2-1.07,2.24-3.96,.38-8,1-11.88,.49-1.41-.19-2.79-3.09-3.56-5-1.55-3.83-2.68-7.82-3.98-11.75-.45,.1-.89,.2-1.34,.3Z"/><path d="M129.09,403.05c-2.59,3.87-5.19,7.74-7.76,11.62-1.53,2.3-2.27,2.33-3.97,.02-2.43-3.3-4.81-6.63-7.24-9.92-.62-.84-1.34-1.6-2.57-2.18,0,.97,0,1.93,0,2.9,0,7.85,.02,15.7,0,23.54,0,2.86-.4,3.17-3.49,3.17-3.13,0-3.51-.3-3.51-3.14-.02-11.77-.03-23.54,.02-35.31,0-1.53-.73-3.53,1.59-4.24,2.61-.8,5.42,0,6.79,1.92,2.79,3.86,5.54,7.75,8.33,11.61,1.73,2.38,2.34,2.38,3.96-.1,2.33-3.57,4.6-7.17,6.87-10.77,1.62-2.56,5.48-3.8,8.08-2.35,.63,.35,1.18,1.45,1.19,2.21,.08,12.61,.06,25.21,.06,37.82,0,2.57-1.93,2.29-3.58,2.36-1.93,.07-3.55-.24-3.54-2.75,.03-7.43,.02-14.86-.01-22.29,0-1.33-.17-2.66-.26-3.99-.32-.03-.64-.06-.95-.09Z"/><path d="M15.98,349.04c0-9.28-.02-18.56,.01-27.85,.01-3.93,.44-4.33,4.32-4.34,8.61-.02,17.21-.12,25.82,.06,9.16,.19,14.87,7.46,11.86,15.52-1.22,3.27-3.72,6.27-6.2,8.84-7.48,7.74-15.16,15.28-22.93,22.73-2.25,2.15-3.28,4.41-3.03,7.44,.16,1.86,.05,3.75,.02,5.63-.05,3.81-.69,4.35-5.11,4.35-4.32,0-4.75-.34-4.76-4.22-.02-9.39,0-18.77,0-28.16Zm10.36,3.16c.51-.04,.79,.03,.9-.08,6.56-6.57,13.16-13.09,19.56-19.8,.86-.91,1.25-3.04,.79-4.17-.38-.94-2.33-1.69-3.61-1.74-4.92-.21-9.85-.04-14.77-.13-2.42-.04-3.38,.97-3.35,3.36,.07,6.77,.01,13.54,.05,20.3,0,.77,.28,1.53,.43,2.26Z"/><path d="M43.93,431.98c-1.82,.69-5.99,.84-6.1,.84-12.68,.65-24.06-12.3-21.51-25.95,1.7-9.13,10.13-16.68,18.84-17.53,8.45-.82,15.27,1.69,20.64,8.16,1.55,1.87,1.29,2.37-1.13,2.9-2.22,.49-3.98,.17-5.88-1.43-8.59-7.25-21.61-4.08-25.55,6.39-3.16,8.37,.92,17.52,10.08,20.46,6.33,2.04,11.68,.33,16.5-3.83,1.35-1.16,4.54-1.6,6.03-.74,1.43,.82,.84,1.9,.15,2.78-2.38,3.04-6.89,5.69-8.98,6.78"/><path d="M205.82,406.18c-.19,1.72-.4,2.74-.4,3.76-.03,6.1-.01,12.2-.02,18.29,0,3.37-.53,3.93-3.62,3.95-3.2,.02-3.73-.55-3.73-4.08,0-11.53-.02-23.06,.02-34.58,0-1.49-.55-3.3,1.66-3.95,2.45-.73,5.53-.08,6.58,1.69,1.88,3.16,3.6,6.4,5.39,9.61,2.66,4.78,5.32,9.57,8.56,14.22,.09-1.04,.24-2.08,.24-3.11,.02-6.43,0-12.86,.02-19.3,.01-2.88,.49-3.17,3.68-3.31,2.54-.11,3.12,1.11,3.1,3.36-.06,11.86-.01,23.72-.05,35.59,0,1.39,.59,3.15-1.52,3.76-2.78,.8-5.9-.03-6.93-1.95-4-7.42-7.98-14.86-11.96-22.29-.18-.34-.41-.66-1.02-1.66Z"/><path d="M88.07,381.57c-20.76,1.6-33.39-17.25-33.82-31.17-.56-18.13,16.06-33.36,32.93-33.69,18.29-.36,34.04,16.17,34.11,32.45,.07,15.45-14.15,34.14-33.22,32.41Zm-.46-9.67c13.41,1.05,23.64-10.86,23.55-22.15-.11-12.61-10.21-23.08-22.96-23.07-13.16,.01-23.44,9.36-23.6,22.87-.15,12.44,10.37,23.16,23.01,22.34Z"/><path d="M77.78,432.47c-10.32,.38-22.97-9.28-22.33-22.24,.58-11.73,10-20.93,22.31-21.18,12.36-.25,22.34,10.78,22.37,21.79,.03,10.93-10.76,21.35-22.35,21.64Zm-.22-6.65c8.69,.04,15.52-6.55,15.54-14.97,.02-8.41-6.62-14.88-15.16-15.11-8.85-.23-15.5,6.71-15.74,14.85-.25,8.33,6.8,15.19,15.35,15.23Z"/><path d="M234.56,317.12c4.66,0,9.37-.07,13.99,.35,10.75,.98,15.34,11.14,8.82,19.73-3.24,4.27-7.17,8.06-11.07,11.77-2.46,2.33-2.71,4.22-.89,7.08,4.31,6.76,8.29,13.72,12.45,20.58,2.02,3.33,1.49,4.3-2.36,4.71-5.25,.56-9.21-.51-11.38-6.04-1.64-4.16-4.23-7.94-6.34-11.93-1.34-2.54-2.5-3.1-5.13-.96-4.34,3.54-5.15,7.89-4.9,13.04,.27,5.48-2.53,7.47-7.77,5.53-1.11-.41-2.14-2.63-2.17-4.03-.2-9.77-.13-19.54-.13-29.32,0-8.64,.11-17.29,0-25.93-.04-3.22,1.25-4.61,4.42-4.57m5.84,33.19c1.45-.6,2.29-.72,2.77-1.19,5.6-5.56,11.17-11.15,16.65-16.82,.68-.71,1.4-2.4,1.06-2.86-.72-.96-2.11-1.92-3.27-1.98-4.64-.23-9.31-.3-13.94,.02-1.15,.08-3.07,1.78-3.12,2.81-.29,6.44-.15,12.91-.15,20.02Z"/><path d="M253.42,411.18c-4.49,0-8.69,.41-12.76-.1-5.74-.72-9.37-5.2-9.39-10.94,0-2.82,.26-5.66,.63-8.47,.4-2.99,2.82-2.21,4.75-2.2,1.98,.02,2.3,1.28,2.18,2.89-.16,2.16-.23,4.33-.44,6.49-.34,3.47,1.22,5.68,4.66,5.72,2.44,.03,4.97-.37,7.31-1.08,2.23-.68,2.69-2.77,2.51-4.94-.18-2.08-.35-4.16-.51-6.24-.11-1.46,.07-2.8,1.96-2.81,1.83,0,4.1-.79,4.85,1.84,.43,1.51,.69,3.11,.73,4.68,.22,7.18,.42,14.36,.47,21.54,.05,7.57-6.93,14.32-14.61,14.7-7.18,.36-12.34-2.42-15.53-8.82-.26-.52-.51-1.07-.62-1.63-.29-1.43-1.02-3.03,1.1-3.78,2.51-.89,4.21-.17,5.42,1.51,1.31,1.83,2.82,3.84,4.74,4.88,6.01,3.26,13.04-1.25,12.91-8.07-.03-1.97-.28-3.94-.37-5.19Z"/><path d="M210.59,317.11c3.18-.05,4.97,1.05,4.93,4.57-.06,4.32-.79,5.48-4.7,5.58-4.54,.12-9.08,.15-13.61,0-2.97-.1-4.13,1.23-4.09,4.01,.03,2.76,.03,5.51-.01,8.27-.03,2.51,1.16,3.7,3.69,3.6,1.26-.05,2.52-.03,3.78,0,4.71,.1,6.27,1.95,5.78,6.64-.28,2.7-1.61,4.11-4.39,4.07-.13,0-.25,0-.38,0q-8.5,.36-8.5,8.79c-.01,9.91-.18,8.43,8.54,8.55,3.28,.04,6.55,.02,9.83,.09,3.64,.08,4.06,2.46,4.09,5.42,.02,2.96-1.13,4.54-4.14,4.55-8.32,.04-16.64,.02-24.96,.05-3.41,.01-4.16-1.99-4.15-4.92,.05-16.04,0-32.07,.03-48.11q.01-10.96,10.89-10.95c1.89,0,3.78,0,5.67,0"/></g></g></g></svg>