<?xml version="1.0" encoding="UTF-8"?> <svg xmlns="http://www.w3.org/2000/svg" id="Group_154" data-name="Group 154" width="304.063" height="22.094" viewBox="0 0 304.063 22.094"><g id="Group_21" data-name="Group 21" transform="translate(0 0.198)"><path id="Path_48" data-name="Path 48" d="M3.9,0-.091,15.465-4.473,0H-7.986l-4.351,15.465L-16.331,0H-20.65l5.84,20.857h4.678l3.9-13.767L-2.3,20.857H2.382L8.22,0Z" transform="translate(20.65 0)"></path><path id="Path_49" data-name="Path 49" d="M1.16,0l-7.3,20.857H-1.7L-.45,17.1H7.864l1.251,3.753h4.47L6.253,0ZM3.723,4.738l2.859,8.522H.863Z" transform="translate(64.121 0)"></path><path id="Path_50" data-name="Path 50" d="M.653.61V6.778h4.23a2.99,2.99,0,0,0,2.831-3.1A2.965,2.965,0,0,0,4.883.61ZM7.983,17.624l-4.2-7.24H.653v7.24H-3.459V-3.232H4.883A6.7,6.7,0,0,1,9.8-1.206,6.677,6.677,0,0,1,11.826,3.68,6.776,6.776,0,0,1,7.8,9.759l4.619,7.865Z" transform="translate(85.233 3.233)"></path><path id="Path_52" data-name="Path 52" d="M0,0V20.857H12.9V16.923H4.113V12.246H8.688L12.009,8.4V8.372h-7.9V3.933h8.639V0Z" transform="translate(33.329 0)"></path><path id="Path_53" data-name="Path 53" d="M0,0V20.857H12.9V16.923H4.113V12.246H8.689L12.01,8.4V8.372h-7.9V3.933h8.639V0Z" transform="translate(102.077 0)"></path></g><g id="Group_22" data-name="Group 22" transform="translate(127.593)"><path id="Path_45" data-name="Path 45" d="M3.759.929A11.782,11.782,0,0,0,1.731-4.918L-1.214-1.826H-19.351A11.861,11.861,0,0,0-19.9,1.759,11.8,11.8,0,0,0-17.08,9.432l7.17-8.5,8.472,10.658A11.862,11.862,0,0,0,3.54,4.19H-7.3L-4.175.929Z" transform="translate(94.073 10.507)"></path><path id="Path_46" data-name="Path 46" d="M3.094.811a11.831,11.831,0,0,0-9.738-5.1,11.831,11.831,0,0,0-9.738,5.1Z" transform="translate(92.66 4.71)"></path><path id="Path_54" data-name="Path 54" d="M1.974,0-1.752,6.257-5.475,0h-4.647l6.047,10.16-6.376,10.7H-5.8l4.052-6.793L2.3,20.857H6.979L.572,10.13,6.622,0Z" transform="translate(27.422 0.418)"></path><path id="Path_55" data-name="Path 55" d="M1.235,1.614A3.025,3.025,0,0,0,4.274-1.545,3.008,3.008,0,0,0,1.235-4.7H-2.43V1.614Zm0-10.161A6.992,6.992,0,0,1,6.3-6.521,6.7,6.7,0,0,1,8.355-1.545,6.7,6.7,0,0,1,6.3,3.431,6.987,6.987,0,0,1,1.235,5.457H-2.43V12.31H-6.541V-8.547Z" transform="translate(45.246 8.965)"></path><path id="Path_57" data-name="Path 57" d="M0,0V20.857H12.066V16.923H4.111V0Z" transform="translate(57.894 0.418)"></path><path id="Path_58" data-name="Path 58" d="M.653.611V6.777h4.23a2.99,2.99,0,0,0,2.831-3.1A2.963,2.963,0,0,0,4.883.611ZM7.983,17.623l-4.2-7.24H.653v7.24H-3.459V-3.233H4.883A6.7,6.7,0,0,1,9.8-1.207a6.675,6.675,0,0,1,2.027,4.886A6.774,6.774,0,0,1,7.8,9.756l4.619,7.867Z" transform="translate(106.326 3.651)"></path><path id="Path_59" data-name="Path 59" d="M.653.611V6.777h4.23a2.99,2.99,0,0,0,2.831-3.1A2.963,2.963,0,0,0,4.883.611ZM7.983,17.623l-4.2-7.24H.653v7.24H-3.459V-3.233H4.883A6.7,6.7,0,0,1,9.8-1.207a6.675,6.675,0,0,1,2.027,4.886A6.774,6.774,0,0,1,7.8,9.756l4.619,7.867Z" transform="translate(144.69 3.651)"></path><path id="Path_60" data-name="Path 60" d="M0,2.627,3.515.571a4.69,4.69,0,0,0,4.8,3.189c2.294,0,3.337-.924,3.337-2.205a1.859,1.859,0,0,0-.983-1.7A14.281,14.281,0,0,0,7.15-1.484a13.487,13.487,0,0,1-4.32-1.937A5.035,5.035,0,0,1,.863-7.711a5.534,5.534,0,0,1,2-4.5,7.32,7.32,0,0,1,4.858-1.7,7.974,7.974,0,0,1,7.449,4.678l-3.457,2A4.173,4.173,0,0,0,7.717-9.917c-1.7,0-2.742.864-2.742,2.086a1.943,1.943,0,0,0,.8,1.607A12.663,12.663,0,0,0,8.939-4.912l1.429.478a11.908,11.908,0,0,1,1.341.505A6.066,6.066,0,0,1,13.02-3.3a6.14,6.14,0,0,1,1.966,1.849,5.662,5.662,0,0,1,.774,2.95,5.591,5.591,0,0,1-2.115,4.589,8.4,8.4,0,0,1-5.452,1.7C4.052,7.782,1.163,5.816,0,2.627" transform="translate(160.71 13.91)"></path><path id="Path_62" data-name="Path 62" d="M0,0V20.857H12.9V16.923H4.111V12.245H8.688L12.007,8.4V8.372h-7.9V3.933h8.641V0Z" transform="translate(0 0.418)"></path><path id="Path_63" data-name="Path 63" d="M0,0V20.857H12.9V16.923H4.111V12.245H8.689L12.007,8.4V8.372h-7.9V3.933h8.641V0Z" transform="translate(123.173 0.418)"></path></g></svg> 